<?xml version="1.0" encoding="UTF-8"?>
<svg id="Layer_1" data-name="Layer 1" xmlns="http://www.w3.org/2000/svg" width="500" height="500" viewBox="0 0 500 500">
  <path d="M249.862708,0c138.57262,1.090992,249.593521,108.345137,250.071939,252.546194.435711,132.183463-107.539057,250.300822-256.357652,247.401525C107.833628,497.301981-3.040474,386.731484-.004381,242.360271,2.67472,114.847715,106.709273,1.317864,249.862708,0ZM197.208192,287.80824c8.888073,0,17.779484.020027,26.667572-.010014,4.250522-.013351,6.912949.947537,5.922049,6.275699-2.178645,11.717319-3.9636,23.504703-5.878687,35.265384-3.607714,22.169049-7.203209,44.340304-10.786456,66.513793-.343651,2.111917-1.447994,4.370641,1.274485,5.828634,4.634213,2.478934,17.30573-.677289,19.92478-5.051268,33.216857-55.430371,66.417025-110.870756,99.600503-166.321155,6.892937-11.533811,3.276326-17.769485-10.245975-17.869577-15.55858-.111208-31.117159-.111208-46.675739,0-4.831058.026703-8.11406-.610547-6.949651-6.932961,3.469804-18.8071,6.639348-37.667562,9.818906-56.528038,2.486712-14.764539,4.868877-29.546856,7.146495-44.346979.340314-2.208671,1.684878-4.941155-1.911734-6.252349-7.680465-2.230762-15.932153.633517-20.578704,7.143165-25.552098,42.554224-51.084199,85.120689-76.596272,127.699387-7.700328,12.845012-15.630865,25.556568-22.967545,38.608438-5.498334,9.775544-1.888384,15.831033,8.901425,15.947829,7.777069.083387,15.557477.01666,23.337884.033349l-.003338-.003338Z" fill="#5858db"/>
</svg>