<?xml version="1.0" encoding="UTF-8"?><svg id="Layer_1" xmlns="http://www.w3.org/2000/svg" xmlns:xlink="http://www.w3.org/1999/xlink" viewBox="0 0 451.68 432.52"><defs><linearGradient id="linear-gradient" x1="157.5" y1="216.32" x2="545.83" y2="216.32" gradientTransform="translate(577.29 2.71) rotate(-179.46) scale(1 -1)" gradientUnits="userSpaceOnUse"><stop offset="0" stop-color="#ebb895"/><stop offset=".18" stop-color="#d3a79f"/><stop offset=".55" stop-color="#967bb9"/><stop offset="1" stop-color="#4541de"/></linearGradient><linearGradient id="linear-gradient-2" x1="199.18" y1="269.04" x2="568.91" y2="269.04" xlink:href="#linear-gradient"/><linearGradient id="linear-gradient-3" x1="131.14" y1="161.86" x2="499.42" y2="161.86" xlink:href="#linear-gradient"/><linearGradient id="linear-gradient-4" x1="123.75" y1="110.54" x2="434.95" y2="110.54" xlink:href="#linear-gradient"/><linearGradient id="linear-gradient-5" x1="265.46" y1="321.05" x2="575.12" y2="321.05" xlink:href="#linear-gradient"/><linearGradient id="linear-gradient-6" x1="390.18" y1="364.53" x2="556.48" y2="364.53" xlink:href="#linear-gradient"/><linearGradient id="linear-gradient-7" x1="144.99" y1="67.53" x2="311.89" y2="67.53" xlink:href="#linear-gradient"/></defs><path d="m393.07,347.31c-.84-.31-1.69-.59-2.54-.86-2.13-.7-4.33-1.42-6.48-2.57-5.35-2.85-10.71-5.83-15.89-8.72-3.42-1.91-6.84-3.82-10.28-5.69-5.41-2.96-10.83-5.89-16.25-8.82-6.38-3.45-12.76-6.9-19.12-10.39-6.97-3.83-13.93-7.7-20.88-11.57-4.97-2.77-9.94-5.54-14.92-8.29-11.85-6.55-23.24-13.26-32.36-23.2-8.96-9.77-17.22-20.34-25.2-30.57l-4.09-5.23c-7.43-9.47-17.06-17.45-29.46-24.42-4.15-2.33-8.46-4.31-13.02-6.39-3.12-1.43-6.35-2.91-9.51-4.51-3.52-1.79-6.97-3.75-10.29-5.65-2.13-1.22-4.27-2.43-6.42-3.61-10.78-5.86-21.56-11.69-32.35-17.53l-18.3-9.91c-8.11-4.39-16.21-8.78-24.3-13.21l-.56-.31c-12.66-6.93-25.76-14.09-38.61-21.2-6.28-3.47-10.34-9.11-11.45-15.87-1.32-8.07,1.83-15.57,8.65-20.57,4.01-2.94,8.31-4.44,12.79-4.44,3.63,0,7.27,1,10.83,2.96l3.67,2.03c5.91,3.26,11.82,6.53,17.74,9.76,10.18,5.56,20.36,11.1,30.55,16.65,8.43,4.59,16.86,9.18,25.28,13.78,4.92,2.68,9.82,5.39,14.73,8.1,10.48,5.78,21.31,11.75,32.07,17.37,14.89,7.77,25.94,18.26,33.78,32.07,6.23,10.98,15.05,20.88,26.96,30.29,15.03,11.87,32.18,21.26,48.77,30.35,3.82,2.09,7.64,4.18,11.44,6.31,11.78,6.58,23.87,13.12,35.56,19.44,5.71,3.09,11.42,6.18,17.13,9.28,4.38,2.39,8.75,4.79,13.12,7.18,9.34,5.13,19,10.43,28.55,15.49,8.28,4.39,12.89,10.07,14.1,17.39.95,5.75-.7,11.8-4.53,16.59-4.11,5.14-10.31,8.34-16.99,8.78l-.98.06-.92-.34Z" fill="url(#linear-gradient)" stroke-width="0"/><path d="m350.72,394.21c-.87-.31-1.76-.59-2.65-.88-2.21-.7-4.49-1.43-6.73-2.59-5.29-2.73-10.55-5.65-15.64-8.48-1.85-1.03-3.69-2.05-5.54-3.07l-11.95-6.57c-13.4-7.37-26.79-14.73-40.18-22.12-3.12-1.72-6.22-3.49-9.32-5.26-5.35-3.06-10.89-6.22-16.41-9.05-11.01-5.65-20.51-11.92-29.04-19.18-10.57-8.99-18.8-19.89-26.77-30.44-1.79-2.37-3.57-4.73-5.39-7.08-8.09-10.46-16.75-18.3-26.48-23.95-4.64-2.69-9.66-5.1-14.52-7.42-3.54-1.69-7.21-3.45-10.78-5.33-7.58-4.01-15.2-8.21-22.57-12.28-3.71-2.05-7.43-4.1-11.15-6.13-13.24-7.23-26.49-14.45-39.75-21.65-2.8-1.52-5.6-3.04-8.39-4.57-8.67-4.72-17.63-9.61-26.5-14.26-12.46-6.53-17.35-18.8-11.89-29.84,3.59-7.26,11.6-12.33,19.49-12.33,2.62,0,5.12.55,7.43,1.64,5.44,2.56,10.77,5.43,15.92,8.22l.34.19c12.14,6.56,24.27,13.15,36.4,19.75l13.94,7.58c3.67,1.99,7.34,4,11,6.01,8.19,4.48,16.66,9.12,25.05,13.53,15.23,8.02,25.61,16.93,32.65,28.04l.56.88c3.89,6.14,7.91,12.49,12.52,18.01,13.17,15.78,30.45,26.73,47.16,36.21,14.07,7.98,28.57,15.82,42.6,23.39l5.35,2.89c11.89,6.43,23.8,12.8,35.72,19.18,7.59,4.06,15.18,8.12,22.77,12.2,2.15,1.15,4.3,2.29,6.45,3.44,6.37,3.38,12.95,6.87,19.29,10.64,8.8,5.23,12.55,13.76,10.31,23.4-2.35,10.08-10.55,16.8-21.41,17.55l-.97.07-.91-.33Z" fill="url(#linear-gradient-2)" stroke-width="0"/><path d="m421.76,287.72c-2.52,0-4.89-.52-7.04-1.54-4.03-1.92-8.25-4.08-13.67-7.03-9.67-5.25-20.2-11.03-32.18-17.66-4.11-2.27-8.2-4.57-12.29-6.87-6.56-3.68-13.34-7.49-20.06-11.12-12.11-6.54-24.66-14.11-34.48-25.08-7-7.82-13.55-16.17-19.89-24.24-3.05-3.88-6.2-7.9-9.34-11.78-6.56-8.1-14.94-15.09-24.92-20.77-4-2.28-8.15-4.21-12.54-6.26-3.5-1.63-7.13-3.32-10.64-5.19-8.6-4.57-17.26-9.34-25.63-13.95-5.41-2.98-10.81-5.96-16.24-8.9-8.7-4.73-17.42-9.42-26.14-14.12-7.76-4.18-15.51-8.36-23.26-12.55-7.09-3.84-14.17-7.71-21.24-11.57-7.22-3.94-14.44-7.89-21.68-11.81-10.78-5.84-15.76-17.5-11.85-27.73,3.12-8.15,11.82-14.07,20.69-14.07,3.64,0,7.15.93,10.43,2.77,11.07,6.19,22.62,12.54,35.29,19.41,8.03,4.36,16.08,8.68,24.14,13.01,8.73,4.69,17.46,9.38,26.17,14.12,15.47,8.41,31.14,17.06,44.6,24.5,10.5,5.8,17.81,12,23.02,19.52,1.7,2.45,3.37,4.93,5.04,7.4,4.14,6.15,8.43,12.52,13.11,18.26,11.31,13.88,26.15,23.48,40.49,31.77,12.53,7.25,25.51,14.28,38.05,21.09,5.47,2.97,10.94,5.93,16.39,8.93,17.9,9.82,35.68,19.58,53.47,29.34,5.64,3.09,13.24,8.62,14.03,20.88l.05.79-.22.76c-.12.41-.24.88-.37,1.39-.38,1.47-.85,3.29-1.56,5.12-2.93,7.52-11.41,13.18-19.75,13.18h0Z" fill="url(#linear-gradient-3)" stroke-width="0"/><path d="m432.29,220.65c-3.96,0-8.03-1.06-11.77-3.06-10.81-5.78-22.32-11.98-33.77-18.56-6.63-3.8-15.31-8.92-23.71-14.77-14.96-10.43-25.77-24.68-34.72-37.22-10.54-14.77-22.18-25.43-35.56-32.61-3.91-2.1-8.03-4.07-12.02-5.98-3.87-1.85-7.88-3.77-11.78-5.84-7.06-3.74-14.14-7.67-21-11.47-4.53-2.51-9.07-5.02-13.62-7.5-7.49-4.08-15-8.12-22.51-12.16-6.51-3.51-13.03-7.02-19.53-10.54l-6.14-3.33c-10.58-5.73-21.52-11.66-32.2-17.67-3.9-2.19-12.95-7.28-11.72-18.35-.4-8.14,3.38-14.65,10.66-18.35,3.44-1.75,7.15-2.64,11.02-2.64,4.25,0,8.71,1.07,13.25,3.19,4.79,2.23,9.41,4.82,13.89,7.32,1.73.97,3.46,1.94,5.2,2.88,8.93,4.86,50.05,27.28,50.05,27.28,3.39,1.85,6.78,3.7,10.16,5.56,8.33,4.57,16.94,9.3,25.48,13.75,15.51,8.09,26.13,17.7,33.42,30.24,3.21,5.52,7.2,11.08,12.18,16.99,12.57,14.9,28.85,25.27,41.62,32.63,11.2,6.46,22.81,12.72,34.03,18.77,6.92,3.73,14.08,7.59,21.09,11.47,1.31.73,2.65,1.42,3.99,2.11,5.79,3,11.77,6.1,16.34,11.84,4.55,5.72,8.86,12.79,6.28,21.83-2.5,8.75-9.63,14.18-18.61,14.18h0Z" fill="url(#linear-gradient-4)" stroke-width="0"/><path d="m287.91,429.12c-.29,0-.57,0-.86-.02l-.52-.02-.5-.14c-1.45-.4-2.93-.73-4.51-1.09-3.67-.83-7.47-1.69-11.09-3.38-6.25-2.91-12.29-6.31-18.13-9.59-2.04-1.14-4.07-2.29-6.12-3.41-5.7-3.13-11.38-6.3-17.06-9.47-11.38-6.34-23.15-12.91-34.85-19.07-22.21-11.7-39.52-26.94-52.92-46.6-11.05-16.21-22.14-27.22-34.88-34.63-4.41-2.57-9.19-4.87-13.82-7.09-3.11-1.49-6.32-3.04-9.46-4.68-5.28-2.76-10.56-5.69-15.66-8.52-2.2-1.22-4.4-2.44-6.61-3.65l-14.27-7.83c-11.63-6.39-23.27-12.78-34.92-19.13-6.33-3.45-10.28-8.82-11.44-15.53-1.37-7.99,1.75-15.4,8.56-20.33,4.08-2.95,8.43-4.45,12.93-4.45,3.51,0,6.99.93,10.34,2.76,5.32,2.9,10.65,5.78,15.98,8.67,4.4,2.38,8.8,4.76,13.19,7.15,3.56,1.94,7.1,3.9,10.64,5.86,7.21,3.99,14.67,8.12,22.09,11.92,13.98,7.16,24.46,17.04,32.03,30.19,5.68,9.86,12.75,18.56,21.03,25.85,10.67,9.4,23.53,18.17,40.45,27.6,7.76,4.33,15.6,8.8,23.18,13.13,5.77,3.29,11.53,6.58,17.32,9.84,6.13,3.45,12.28,6.87,18.43,10.29,7.16,3.98,14.32,7.97,21.46,12,10.26,5.8,20.89,11.95,31.59,18.25,4.89,2.88,7.79,7.65,8.39,13.78.51,5.2-1.37,10.56-5.16,14.71-3.84,4.2-9.26,6.62-14.85,6.62h0Z" fill="url(#linear-gradient-5)" stroke-width="0"/><path d="m159.89,431.05c-1.46-.49-2.95-.94-4.44-1.39-3.53-1.06-7.17-2.15-10.66-3.88-6.48-3.21-12.86-6.76-19.04-10.18-2.85-1.58-5.7-3.16-8.57-4.72-12.53-6.8-22.31-16.27-29.07-28.17-7.72-13.58-18.05-25-30.7-33.94-4.82-3.4-9.85-6.75-14.71-9.98-4.08-2.72-8.31-5.53-12.43-8.38-7.14-4.95-11.25-10.95-12.21-17.83-.69-4.93.62-9.43,3.77-13.02,3.58-4.08,9.29-6.51,15.27-6.51,2.15,0,4.24.31,6.2.93,9.61,3.04,18.11,8.75,24.6,16.51,4.62,5.53,8.88,11.41,13,17.09,2.11,2.91,4.28,5.91,6.47,8.8,8.62,11.44,17.99,19.78,28.63,25.51,2.71,1.46,5.58,2.84,8.35,4.17,2.83,1.36,5.75,2.76,8.61,4.3,12.3,6.6,25.04,13.55,38.94,21.26,6.24,3.46,10.08,8.62,11.1,14.93.95,5.87-.83,11.95-4.9,16.68-3.51,4.09-8.23,6.64-13.16,7.16l-.73,2.13-4.35-1.47Z" fill="url(#linear-gradient-6)" stroke-width="0"/><path d="m411.67,136.18c-7.97,0-14.06-3.94-19.43-7.42l-.43-.28c-10.4-6.73-17.08-16.37-23.53-25.69-1.31-1.89-2.62-3.78-3.95-5.64-6.35-8.84-14.29-18.72-25.07-25.03-7.83-4.59-16.07-8.89-24.05-13.05-4.36-2.28-8.87-4.63-13.28-7.01-9.49-5.13-18.76-10.16-27.9-15.45-8.33-4.82-11.01-14.28-6.97-24.69,2.89-7.46,8.98-11.91,16.29-11.91,1.11,0,2.25.1,3.38.31,8.59.22,11.42.85,16.51,3.62,5.85,3.18,11.73,6.31,17.6,9.44l6.35,3.38c9.88,5.28,20.14,11.28,27.41,21.46,2.15,3.01,4.15,6.13,6.09,9.15.92,1.44,1.85,2.88,2.79,4.31,9.65,14.68,23.17,27.2,42.54,39.39,1.31.82,2.63,1.62,3.96,2.42,5.54,3.33,11.28,6.78,15.93,12.15,5.15,5.94,6.59,13.08,4.06,20.1-3.55,9.89-13.96,10.29-17.38,10.42-.31.01-.62.02-.93.02h0Z" fill="url(#linear-gradient-7)" stroke-width="0"/></svg>