<?xml version="1.0" encoding="UTF-8"?>
<svg id="Layer_1" data-name="Layer 1" xmlns="http://www.w3.org/2000/svg" width="451.676924" height="431.036554" xmlns:xlink="http://www.w3.org/1999/xlink" viewBox="0 0 451.676924 431.036554">
  <defs>
    <linearGradient id="linear-gradient" x1="417.766386" y1="216.315851" x2="29.456159" y2="219.957449" gradientTransform="translate(.000004 434.000048) scale(1 -1)" gradientUnits="userSpaceOnUse">
      <stop offset=".059309" stop-color="#d6a99e"/>
      <stop offset=".233153" stop-color="#b08dae" stop-opacity=".738426"/>
      <stop offset=".428268" stop-color="#8a72bf" stop-opacity=".477602"/>
      <stop offset=".609495" stop-color="#6c5dcc" stop-opacity=".271242"/>
      <stop offset=".770879" stop-color="#564dd6" stop-opacity=".122943"/>
      <stop offset=".906557" stop-color="#4944db" stop-opacity=".032482"/>
      <stop offset="1" stop-color="#4541de" stop-opacity="0"/>
    </linearGradient>
    <linearGradient id="linear-gradient-2" x1="444.635074" y1="270.490489" x2="76.373317" y2="273.944072" gradientTransform="translate(.000004 434.000048) scale(1 -1)" gradientUnits="userSpaceOnUse">
      <stop offset=".059309" stop-color="#d6a99e"/>
      <stop offset=".135447" stop-color="#c39ba6" stop-opacity=".870033"/>
      <stop offset=".304181" stop-color="#9d80b7" stop-opacity=".608124"/>
      <stop offset=".468191" stop-color="#7d69c5" stop-opacity=".390322"/>
      <stop offset=".623539" stop-color="#6557cf" stop-opacity=".220767"/>
      <stop offset=".768106" stop-color="#534bd7" stop-opacity=".099271"/>
      <stop offset=".897807" stop-color="#4843dc" stop-opacity=".025692"/>
      <stop offset="1" stop-color="#4541de" stop-opacity="0"/>
    </linearGradient>
    <linearGradient id="linear-gradient-3" x1="308.833964" y1="112.571903" x2="-.814439" y2="115.475806" gradientTransform="translate(.000004 434.000048) scale(1 -1)" gradientUnits="userSpaceOnUse">
      <stop offset=".024506" stop-color="#d6a99e" stop-opacity=".9"/>
      <stop offset=".087925" stop-color="#bf99a7" stop-opacity=".762007"/>
      <stop offset=".194119" stop-color="#9f81b6" stop-opacity=".560856"/>
      <stop offset=".305719" stop-color="#836dc2" stop-opacity=".387764"/>
      <stop offset=".421582" stop-color="#6c5dcc" stop-opacity=".24674"/>
      <stop offset=".543063" stop-color="#5b50d4" stop-opacity=".137637"/>
      <stop offset=".672616" stop-color="#4e47d9" stop-opacity=".060286"/>
      <stop offset=".815899" stop-color="#4742dc" stop-opacity=".014495"/>
      <stop offset="1" stop-color="#4541de" stop-opacity="0"/>
    </linearGradient>
    <linearGradient id="linear-gradient-4" x1="375.593639" y1="163.99789" x2="5.878449" y2="167.465103" gradientTransform="translate(.000004 434.000048) scale(1 -1)" gradientUnits="userSpaceOnUse">
      <stop offset=".059309" stop-color="#d6a99e"/>
      <stop offset=".181264" stop-color="#b692ab" stop-opacity=".781925"/>
      <stop offset=".331548" stop-color="#9479bb" stop-opacity=".545922"/>
      <stop offset=".48004" stop-color="#7765c7" stop-opacity=".34982"/>
      <stop offset=".623612" stop-color="#6155d1" stop-opacity=".197344"/>
      <stop offset=".760945" stop-color="#514ad8" stop-opacity=".088301"/>
      <stop offset=".889354" stop-color="#4843dc" stop-opacity=".022555"/>
      <stop offset="1" stop-color="#4541de" stop-opacity="0"/>
    </linearGradient>
    <linearGradient id="linear-gradient-5" x1="452.51226" y1="321.743388" x2="141.314963" y2="324.661816" gradientTransform="translate(.000004 434.000048) scale(1 -1)" gradientUnits="userSpaceOnUse">
      <stop offset=".059309" stop-color="#d6a99e"/>
      <stop offset=".098398" stop-color="#cda3a1" stop-opacity=".944422"/>
      <stop offset=".346345" stop-color="#9d80b6" stop-opacity=".612342"/>
      <stop offset=".569239" stop-color="#7765c7" stop-opacity=".349126"/>
      <stop offset=".759304" stop-color="#5c51d3" stop-opacity=".159379"/>
      <stop offset=".909076" stop-color="#4b45db" stop-opacity=".042934"/>
      <stop offset="1" stop-color="#4541de" stop-opacity="0"/>
    </linearGradient>
    <linearGradient id="linear-gradient-6" x1="-1078.819213" y1="76.995229" x2="-912.51655" y2="76.995229" gradientTransform="translate(-895.775799 429.799804) rotate(-179.462692)" gradientUnits="userSpaceOnUse">
      <stop offset="0" stop-color="#d6a99e" stop-opacity=".5"/>
      <stop offset=".040925" stop-color="#bd97a9" stop-opacity=".413947"/>
      <stop offset=".116276" stop-color="#977cb9" stop-opacity=".285974"/>
      <stop offset=".202038" stop-color="#7966c6" stop-opacity=".180277"/>
      <stop offset=".301115" stop-color="#6155d1" stop-opacity=".099015"/>
      <stop offset=".421792" stop-color="#5149d8" stop-opacity=".042036"/>
      <stop offset=".58674" stop-color="#4742dc" stop-opacity=".009212"/>
      <stop offset="1" stop-color="#4541de" stop-opacity="0"/>
    </linearGradient>
    <linearGradient id="linear-gradient-7" x1="-1324.003118" y1="373.27907" x2="-1157.108992" y2="373.27907" gradientTransform="translate(-895.775799 429.799804) rotate(-179.462692)" gradientUnits="userSpaceOnUse">
      <stop offset=".059309" stop-color="#d6a99e"/>
      <stop offset=".150156" stop-color="#d0a4a0" stop-opacity=".960187"/>
      <stop offset=".295286" stop-color="#c099a7" stop-opacity=".851493"/>
      <stop offset=".47655" stop-color="#a687b2" stop-opacity=".67409"/>
      <stop offset=".68686" stop-color="#836dc2" stop-opacity=".427786"/>
      <stop offset=".918882" stop-color="#554dd6" stop-opacity=".116943"/>
      <stop offset="1" stop-color="#4541de" stop-opacity="0"/>
    </linearGradient>
    <linearGradient id="linear-gradient-8" x1="12.815076" y1="210.673639" x2="229.698601" y2="210.673639" gradientUnits="userSpaceOnUse">
      <stop offset="0" stop-color="#9c819a"/>
      <stop offset="1" stop-color="#d6a99e"/>
    </linearGradient>
  </defs>
  <g>
    <path d="M416.49033,322.39367c.950012,5.759949-.699951,11.799988-4.529968,16.589966-4.109985,5.140015-10.669983,8.140015-16.98999,8.780029l-1-.050049-.900024-.219971c-.839966-.309998-1.690002-.590027-2.539978-.869995-2.130005-.700012-4.330017-1.419983-6.48999-2.559998-5.340027-2.850037-10.700012-5.840027-15.890015-8.72998-3.419983-1.910034-6.840027-3.809998-10.27002-5.690002-5.409973-2.960022-10.829956-5.890015-16.25-8.820007-6.390015-3.450012-12.76001-6.900024-19.119995-10.390015-6.97998-3.830017-13.929993-7.700012-20.880005-11.570007-4.969971-2.77002-9.940002-5.539978-14.919983-8.299988-11.849976-6.549988-23.23999-13.25-32.359985-23.190002-8.960022-9.77002-17.220032-20.349976-25.210022-30.570007l-4.089966-5.23999c-7.430054-9.460022-17.060059-17.450012-29.460022-24.419983-4.160034-2.330017-8.470032-4.300049-13.030029-6.390015-3.119995-1.429993-6.349976-2.910034-9.5-4.51001-3.529968-1.780029-6.969971-3.75-10.299988-5.650024-2.130005-1.209961-4.26001-2.429993-6.419983-3.599976-10.780029-5.859985-21.559998-11.700012-32.350037-17.530029l-18.299988-9.909973c-8.099976-4.390015-16.209961-8.779968-24.299988-13.210022l-.559998-.299988c-12.659973-6.929993-25.75-14.099976-38.609985-21.200012-6.27002-3.469971-10.340027-9.109985-11.450012-15.880005-1.320007-8.059998,1.840027-15.559998,8.659973-20.569946,4.01001-2.940002,8.309998-4.430054,12.780029-4.430054,3.630005,0,7.27002.990051,10.830017,2.960022l3.669983,2.02002c5.909973,3.269958,11.820007,6.529968,17.73999,9.76001,10.179993,5.559998,20.369995,11.109985,30.549988,16.649963,8.429993,4.590027,16.860046,9.179993,25.290039,13.780029,4.919983,2.679993,9.820007,5.390015,14.72998,8.089966,10.469971,5.780029,21.299988,11.76001,32.070007,17.369995,14.880005,7.77002,25.929993,18.26001,33.779968,32.070007,6.230042,10.980042,15.050049,20.890015,26.960022,30.290039,15.030029,11.869995,32.179993,21.259949,48.77002,30.349976,3.820007,2.090027,7.630005,4.179993,11.429993,6.299988,11.789978,6.590027,23.880005,13.119995,35.570007,19.450012,5.709961,3.090027,11.419983,6.169983,17.119995,9.280029,4.380005,2.389954,8.75,4.789978,13.119995,7.179993,9.339966,5.130005,19,10.429993,28.559998,15.48999,8.27002,4.390015,12.890015,10.080017,14.089966,17.390015Z" fill="url(#linear-gradient)"/>
    <path d="M443.660374,267.443658l-.220032.76001c-.119995.409973-.23999.880005-.369995,1.389954-.380005,1.470032-.849976,3.290039-1.559998,5.119995-2.929993,7.52002-11.409973,13.190002-19.75,13.190002-2.52002-.009949-4.890015-.519958-7.029968-1.539978-4.040039-1.919983-8.25-4.089966-13.679993-7.029968-9.670044-5.26001-20.190002-11.030029-32.180054-17.670044-4.109985-2.269958-8.199951-4.570007-12.289978-6.859985-6.559998-3.690002-13.340027-7.48999-20.059998-11.119995-12.109985-6.539978-24.659973-14.109985-34.47998-25.080017-7-7.820007-13.559998-16.169983-19.890015-24.23999-3.049988-3.880005-6.200012-7.900024-9.349976-11.779968-6.560059-8.100037-14.940002-15.090027-24.920044-20.77002-4-2.27002-8.149963-4.210022-12.539978-6.25-3.5-1.640015-7.130005-3.320007-10.640015-5.190002-8.599976-4.580017-17.26001-9.349976-25.640015-13.960022-5.399963-2.97998-10.809998-5.950012-16.22998-8.899963-8.700012-4.720032-17.419983-9.420044-26.140015-14.119995-7.76001-4.170044-15.51001-8.350037-23.26001-12.550049-7.079956-3.839966-14.159973-7.709961-21.23999-11.569946-7.219971-3.950012-14.440002-7.890015-21.669983-11.810059-10.780029-5.839966-15.77002-17.509949-11.849976-27.72998,3.119995-8.159973,11.819946-14.070007,20.690002-14.070007,3.639954,0,7.149963.929993,10.429993,2.76001,11.079956,6.190002,22.619995,12.539978,35.299988,19.410034,8.029968,4.359985,16.080017,8.690002,24.130005,13.019958,8.72998,4.690002,17.459961,9.380005,26.169983,14.109985,15.47998,8.410034,31.140015,17.060059,44.609985,24.5,10.48999,5.810059,17.809998,12.01001,23.02002,19.52002,1.700012,2.450012,3.369995,4.929993,5.039978,7.400024,4.140015,6.159973,8.429993,12.519958,13.110046,18.269958,11.309998,13.880005,26.149963,23.470032,40.48999,31.77002,12.529968,7.25,25.51001,14.280029,38.059998,21.090027,5.469971,2.959961,10.940002,5.929993,16.390015,8.929993,17.899963,9.820007,35.679993,19.580017,53.469971,29.330017,5.650024,3.089966,13.23999,8.619995,14.030029,20.889954l.049988.780029Z" fill="url(#linear-gradient-2)"/>
    <path d="M307.920384,407.973627c.519958,5.200012-1.360046,10.559998-5.150024,14.710022-3.849976,4.200012-9.26001,6.609985-14.859985,6.609985-.280029,0-.570007,0-.859985-.019958l-.52002-.02002-.5-.130005c-1.450012-.400024-2.929993-.73999-4.51001-1.090027-3.669983-.839966-7.469971-1.699951-11.080017-3.380005-6.25-2.919983-12.289978-6.309998-18.139954-9.599976-2.030029-1.140015-4.070007-2.289978-6.110046-3.409973-5.700012-3.140015-11.380005-6.300049-17.059998-9.470032-11.380005-6.339966-23.149963-12.899963-34.849976-19.070007-22.210022-11.690002-39.52002-26.940002-52.919983-46.589966-11.050049-16.220032-22.140015-27.220032-34.880005-34.630005-4.410034-2.570007-9.190002-4.869995-13.820007-7.100037-3.100037-1.48999-6.320007-3.039978-9.450012-4.679993-5.280029-2.76001-10.559998-5.690002-15.659973-8.51001-2.210022-1.219971-4.410034-2.449951-6.610046-3.659973l-14.269958-7.820007c-11.630005-6.390015-23.27002-12.779968-34.920044-19.130005-6.320007-3.450012-10.279968-8.820007-11.429993-15.529968-1.380005-7.990051,1.73999-15.400024,8.559998-20.330017,4.080017-2.950012,8.429993-4.450012,12.929993-4.450012,3.5,0,6.980042.929993,10.340027,2.76001,5.320007,2.900024,10.650024,5.779968,15.97998,8.669983,4.390015,2.380005,8.790039,4.76001,13.179993,7.150024,3.559998,1.929993,7.100037,3.890015,10.650024,5.849976,7.210022,3.98999,14.659973,8.119995,22.090027,11.920044,13.97998,7.169983,24.459961,17.039978,32.029968,30.199951,5.679993,9.860046,12.75,18.559998,21.030029,25.850037,10.679993,9.389954,23.529968,18.159973,40.449951,27.589966,7.76001,4.330017,15.600037,8.809998,23.179993,13.130005,5.77002,3.290039,11.530029,6.580017,17.320007,9.840027,6.130005,3.459961,12.280029,6.880005,18.429993,10.299988,7.160034,3.97998,14.320007,7.969971,21.450012,12,10.27002,5.799988,20.890015,11.950012,31.590027,18.25,4.890015,2.890015,7.789978,7.650024,8.390015,13.789978Z" fill="url(#linear-gradient-3)"/>
    <path d="M374.00034,377.093622c-2.309998,9.910034-10.289978,16.580017-20.889954,17.51001-.340027.030029-.690002.02002-1.040039-.01001l-.48999-.039978-.869995-.169983c-.869995-.309998-1.76001-.590027-2.650024-.880005-2.199951-.700012-4.47998-1.429993-6.719971-2.580017-5.289978-2.73999-10.549988-5.659973-15.640015-8.47998-1.849976-1.030029-3.700012-2.049988-5.549988-3.070007l-11.940002-6.570007c-13.400024-7.369995-26.799988-14.72998-40.179993-22.119995-3.119995-1.72998-6.220032-3.5-9.320007-5.27002-5.349976-3.049988-10.890015-6.209961-16.409973-9.049988-11.01001-5.650024-20.51001-11.919983-29.050049-19.179993-10.559998-8.97998-18.799988-19.890015-26.769958-30.440002-1.780029-2.369995-3.570007-4.72998-5.380005-7.080017-8.090027-10.459961-16.75-18.289978-26.480042-23.950012-4.639954-2.689941-9.659973-5.089966-14.519958-7.409973-3.549988-1.700012-7.210022-3.450012-10.780029-5.340027-7.580017-4-15.200012-8.209961-22.570007-12.269958-3.709961-2.049988-7.429993-4.100037-11.149963-6.130005-13.23999-7.22998-26.48999-14.460022-39.75-21.660034-2.799988-1.519958-5.600037-3.039978-8.390015-4.559998-8.669983-4.72998-17.630005-9.609985-26.51001-14.259949-12.460022-6.530029-17.349976-18.809998-11.890015-29.850037,3.590027-7.25,11.610046-12.320007,19.490051-12.320007,2.619995,0,5.119995.549988,7.429993,1.630005,5.440002,2.559998,10.759949,5.440002,15.919983,8.220032l.339966.190002c12.140015,6.559998,24.27002,13.149963,36.400024,19.73999l13.940002,7.580017c3.669983,2,7.340027,4,11,6.009949,8.200012,4.480042,16.669983,9.119995,25.049988,13.530029,15.23999,8.02002,25.609985,16.929993,32.660034,28.039978l.549988.880005c3.899963,6.140015,7.919983,12.48999,12.52002,18.01001,13.169983,15.780029,30.449951,26.72998,47.159973,36.210022,14.070007,7.97998,28.570007,15.820007,42.599976,23.389954l5.350037,2.890015c11.880005,6.429993,23.799988,12.799988,35.719971,19.179993,7.590027,4.059998,15.179993,8.119995,22.76001,12.200012,2.150024,1.150024,4.299988,2.289978,6.460022,3.440002,6.359985,3.369995,12.950012,6.859985,19.289978,10.630005,8.789978,5.23999,12.549988,13.77002,10.299988,23.409973Z" fill="url(#linear-gradient-4)"/>
    <path d="M223.614628,29.080404c11.795181,6.42992,22.695724,12.373268,22.695724,12.373268,3.390015,1.839966,6.780029,3.699951,10.160049,5.559998,8.330017,4.570007,16.940002,9.299988,25.47998,13.75,15.51001,8.089962,26.130005,17.699947,33.419983,30.239986,3.220032,5.52002,7.200012,11.080017,12.190002,16.98999,12.570007,14.900024,28.840027,25.26001,41.610046,32.630005,11.199951,6.460022,22.809998,12.719971,34.029968,18.77002,6.929993,3.72998,14.090027,7.589966,21.100037,11.469971,1.309998.720032,2.639954,1.419983,3.97998,2.109985,5.789978,3,11.779968,6.100037,16.339966,11.840027,4.559998,5.719971,8.860046,12.789978,6.280029,21.830017-2.5,8.75-9.630005,14.190002-18.609985,14.190002-3.960022,0-8.030029-1.059998-11.77002-3.070007-10.809998-5.780029-22.320007-11.980042-33.780029-18.550049-6.619995-3.809998-15.309998-8.919983-23.709961-14.779968-14.960022-10.419983-25.77002-24.669983-34.720032-37.210022-10.539978-14.769958-22.179993-25.440002-35.559998-32.619995-3.909973-2.089966-8.029968-4.070007-12.019958-5.97998-3.880005-1.849976-7.880005-3.77002-11.780029-5.840027-7.049988-3.73999-14.140015-7.669983-20.98999-11.469971-4.539978-2.51001-9.070007-5.02002-13.630005-7.5-7.48999-4.070007-15-8.119995-22.51001-12.160034-6.51001-3.509949-13.029968-7.019958-19.529968-10.539978l-6.140015-3.330017c-10.570007-5.72998-21.52002-11.659973-32.190002-17.669983-3.900024-2.190002-12.950012-7.279968-11.72998-18.349976-.390015-8.140015,3.380005-14.640015,10.659973-18.340027,3.450012-1.75,7.150024-2.640015,11.02002-2.640015,4.26001,0,8.719971,1.070007,13.26001,3.190002,4.789978,2.230042,9.409973,4.820007,13.880005,7.320007,1.73999.960022,3.469971,1.929993,5.209961,2.880005,4.332214,2.357726,16.240387,8.848237,27.354263,14.90676" fill="url(#linear-gradient-5)"/>
    <path d="M158.565708,430.792261c-1.463623-.494537-1.626083-.505859-3.114395-.952881-3.526627-1.058136-7.174454-2.153412-10.656189-3.881348-6.475571-3.213806-12.860596-6.755829-19.03537-10.181244-2.850929-1.581665-5.701111-3.162567-8.566254-4.716003-12.530609-6.795166-22.310562-16.271729-29.068985-28.167542-7.716957-13.582184-18.04689-24.999786-30.703217-33.935028-4.822632-3.4039-9.848045-6.749146-14.707344-9.984467-4.084831-2.718506-8.308098-5.529846-12.425106-8.384979-7.142284-4.952148-11.249565-10.952026-12.207359-17.832581-.686916-4.928375.616579-9.430511,3.768312-13.020782,3.578251-4.075165,9.287588-6.507812,15.273039-6.507812,2.151291,0,4.236732.314117,6.198711.934875,9.607101,3.041534,18.113491,8.749603,24.599541,16.507874,4.622093,5.530579,8.883522,11.408691,13.004272,17.09375,2.106392,2.90564,4.283875,5.909302,6.465843,8.804535,8.619377,11.437653,17.986282,19.782562,28.634987,25.509918,2.70726,1.456909,5.576149,2.835083,8.350746,4.168732,2.828476,1.359619,5.753479,2.764557,8.607407,4.295715,12.302383,6.599121,25.040268,13.553223,38.941727,21.259491,6.237625,3.458099,10.076263,8.618896,11.099915,14.925476.95256,5.867706-.832077,11.948547-4.895966,16.682373-3.513153,4.092987-7.610657,6.781769-12.540283,7.303802l-2.277466.272949-2.152039.049469-2.594543-.244263.000015-.000031Z" fill="url(#linear-gradient-6)"/>
    <path d="M411.669651,136.352777c-7.966125,0-14.058594-3.943741-19.434204-7.422638l-.426514-.275497c-10.401031-6.726852-17.075623-16.368256-23.530243-25.692589-1.307983-1.890556-2.615967-3.779633-3.952393-5.641235-6.349854-8.836472-14.292053-18.719948-25.0672-25.030228-7.831451-4.585312-16.074432-8.887707-24.04657-13.048271-4.357941-2.275204-8.86557-4.627636-13.277405-7.011257-9.486633-5.125896-18.76001-10.164165-27.897949-15.450455-8.333527-4.819218-11.005615-14.280178-6.973175-24.690878,2.889099-7.459762,8.979309-11.912897,16.29068-11.912897,1.08313,0,1.815582-.213209,3.036682-.171398,2.271912.077791,2.752319.266521,2.752319.266521,1.316711.146733,9.034912,1.072122,14.103912,3.827824,5.848511,3.178159,11.725464,6.308051,17.602417,9.4372l6.348358,3.384589c9.884705,5.277378,20.143555,11.280979,27.406311,21.459995,2.149048,3.012569,4.151428,6.134293,6.087952,9.153542.924866,1.440567,1.848236,2.881878,2.789581,4.311306,9.648254,14.678936,23.166595,27.196278,42.543915,39.394321,1.307983.823502,2.633942,1.62101,3.961365,2.418518,5.543213,3.331871,11.274994,6.777351,15.933777,12.153488,5.145142,5.939743,6.587799,13.07872,4.063141,20.100372-3.554291,9.893127-13.961304,10.291138-17.382416,10.421829-.312775.012619-.622559.017822-.930847.017822h-.001495v.000015Z" fill="url(#linear-gradient-7)"/>
  </g>
  <path d="M207.253447,188.491062h-64.355036v-64.355036c0-11.894741-9.739931-21.909431-21.909433-21.909431s-21.909433,9.739928-21.909433,21.909431v64.628179H34.724507c-11.894741,0-21.909431,9.739931-21.909431,21.909433s9.739928,21.909433,21.909431,21.909433h64.628179v64.628179c0,11.894741,9.739931,21.909433,21.909433,21.909433s21.909433-9.739931,21.909433-21.909433l-.010564-64.904014h64.628179c11.894741,0,21.909433-9.739931,21.909433-21.909433s-10.278623-21.909433-22.448146-21.909433l.002992.002693Z" fill="url(#linear-gradient-8)"/>
</svg>