<?xml version="1.0" encoding="UTF-8"?>
<svg id="Layer_1" data-name="Layer 1" xmlns="http://www.w3.org/2000/svg" width="451.676894" height="431.03649" xmlns:xlink="http://www.w3.org/1999/xlink" viewBox="0 0 451.676894 431.03649">
  <defs>
    <linearGradient id="linear-gradient" x1="417.766385" y1="217.684175" x2="29.45616" y2="214.042581" gradientUnits="userSpaceOnUse">
      <stop offset=".059309" stop-color="#d6a99e"/>
      <stop offset=".233153" stop-color="#b08dae" stop-opacity=".738426"/>
      <stop offset=".428268" stop-color="#8a72bf" stop-opacity=".477602"/>
      <stop offset=".609495" stop-color="#6c5dcc" stop-opacity=".271242"/>
      <stop offset=".770879" stop-color="#564dd6" stop-opacity=".122943"/>
      <stop offset=".906557" stop-color="#4944db" stop-opacity=".032482"/>
      <stop offset="1" stop-color="#4541de" stop-opacity="0"/>
    </linearGradient>
    <linearGradient id="linear-gradient-2" x1="444.635073" y1="163.509537" x2="76.373318" y2="160.055959" gradientUnits="userSpaceOnUse">
      <stop offset=".059309" stop-color="#d6a99e"/>
      <stop offset=".135447" stop-color="#c39ba6" stop-opacity=".870033"/>
      <stop offset=".304181" stop-color="#9d80b7" stop-opacity=".608124"/>
      <stop offset=".468191" stop-color="#7d69c5" stop-opacity=".390322"/>
      <stop offset=".623539" stop-color="#6557cf" stop-opacity=".220767"/>
      <stop offset=".768106" stop-color="#534bd7" stop-opacity=".099271"/>
      <stop offset=".897807" stop-color="#4843dc" stop-opacity=".025692"/>
      <stop offset="1" stop-color="#4541de" stop-opacity="0"/>
    </linearGradient>
    <linearGradient id="linear-gradient-3" x1="308.833963" y1="321.428123" x2="-.814438" y2="318.524224" gradientUnits="userSpaceOnUse">
      <stop offset=".024506" stop-color="#d6a99e" stop-opacity=".9"/>
      <stop offset=".087925" stop-color="#bf99a7" stop-opacity=".762007"/>
      <stop offset=".194119" stop-color="#9f81b6" stop-opacity=".560856"/>
      <stop offset=".305719" stop-color="#836dc2" stop-opacity=".387764"/>
      <stop offset=".421582" stop-color="#6c5dcc" stop-opacity=".24674"/>
      <stop offset=".543063" stop-color="#5b50d4" stop-opacity=".137637"/>
      <stop offset=".672616" stop-color="#4e47d9" stop-opacity=".060286"/>
      <stop offset=".815899" stop-color="#4742dc" stop-opacity=".014495"/>
      <stop offset="1" stop-color="#4541de" stop-opacity="0"/>
    </linearGradient>
    <linearGradient id="linear-gradient-4" x1="375.593638" y1="270.002136" x2="5.87845" y2="266.534927" gradientUnits="userSpaceOnUse">
      <stop offset=".059309" stop-color="#d6a99e"/>
      <stop offset=".181264" stop-color="#b692ab" stop-opacity=".781925"/>
      <stop offset=".331548" stop-color="#9479bb" stop-opacity=".545922"/>
      <stop offset=".48004" stop-color="#7765c7" stop-opacity=".34982"/>
      <stop offset=".623612" stop-color="#6155d1" stop-opacity=".197344"/>
      <stop offset=".760945" stop-color="#514ad8" stop-opacity=".088301"/>
      <stop offset=".889354" stop-color="#4843dc" stop-opacity=".022555"/>
      <stop offset="1" stop-color="#4541de" stop-opacity="0"/>
    </linearGradient>
    <linearGradient id="linear-gradient-5" x1="452.512229" y1="112.256639" x2="141.314934" y2="109.338214" gradientUnits="userSpaceOnUse">
      <stop offset=".059309" stop-color="#d6a99e"/>
      <stop offset=".098398" stop-color="#cda3a1" stop-opacity=".944422"/>
      <stop offset=".346345" stop-color="#9d80b6" stop-opacity=".612342"/>
      <stop offset=".569239" stop-color="#7765c7" stop-opacity=".349126"/>
      <stop offset=".759304" stop-color="#5c51d3" stop-opacity=".159379"/>
      <stop offset=".909076" stop-color="#4b45db" stop-opacity=".042934"/>
      <stop offset="1" stop-color="#4541de" stop-opacity="0"/>
    </linearGradient>
    <linearGradient id="linear-gradient-6" x1="390.177556" y1="363.892775" x2="556.480205" y2="363.892775" gradientTransform="translate(577.290846 2.706873) rotate(-179.462693) scale(1 -1)" gradientUnits="userSpaceOnUse">
      <stop offset="0" stop-color="#d6a99e" stop-opacity=".5"/>
      <stop offset=".040925" stop-color="#bd97a9" stop-opacity=".413947"/>
      <stop offset=".116276" stop-color="#977cb9" stop-opacity=".285974"/>
      <stop offset=".202038" stop-color="#7966c6" stop-opacity=".180277"/>
      <stop offset=".301115" stop-color="#6155d1" stop-opacity=".099015"/>
      <stop offset=".421792" stop-color="#5149d8" stop-opacity=".042036"/>
      <stop offset=".58674" stop-color="#4742dc" stop-opacity=".009212"/>
      <stop offset="1" stop-color="#4541de" stop-opacity="0"/>
    </linearGradient>
    <linearGradient id="linear-gradient-7" x1="144.993639" y1="67.608983" x2="311.887777" y2="67.608983" gradientTransform="translate(577.290846 2.706873) rotate(-179.462693) scale(1 -1)" gradientUnits="userSpaceOnUse">
      <stop offset=".059309" stop-color="#d6a99e"/>
      <stop offset=".150156" stop-color="#d0a4a0" stop-opacity=".960187"/>
      <stop offset=".295286" stop-color="#c099a7" stop-opacity=".851493"/>
      <stop offset=".47655" stop-color="#a687b2" stop-opacity=".67409"/>
      <stop offset=".68686" stop-color="#836dc2" stop-opacity=".427786"/>
      <stop offset=".918882" stop-color="#554dd6" stop-opacity=".116943"/>
      <stop offset="1" stop-color="#4541de" stop-opacity="0"/>
    </linearGradient>
    <linearGradient id="linear-gradient-8" x1="12.815075" y1="211.353612" x2="259.570037" y2="211.353612" gradientUnits="userSpaceOnUse">
      <stop offset="0" stop-color="#4d4992" stop-opacity=".8"/>
      <stop offset=".140278" stop-color="#6d5f94" stop-opacity=".846861"/>
      <stop offset=".330076" stop-color="#927998" stop-opacity=".901431"/>
      <stop offset=".515443" stop-color="#af8e9a" stop-opacity=".944377"/>
      <stop offset=".692568" stop-color="#c49d9c" stop-opacity=".975098"/>
      <stop offset=".858007" stop-color="#d1a59d" stop-opacity=".993637"/>
      <stop offset="1" stop-color="#d6a99e"/>
    </linearGradient>
  </defs>
  <g>
    <path d="M416.49033,322.39365c.950012,5.759949-.699951,11.799988-4.529968,16.589966-4.109985,5.140015-10.669983,8.140015-16.98999,8.780029l-1-.050049-.900024-.219971c-.839966-.309998-1.690002-.590027-2.539978-.869995-2.130005-.700012-4.330017-1.419983-6.48999-2.559998-5.340027-2.850037-10.700012-5.840027-15.890015-8.72998-3.419983-1.910034-6.840027-3.809998-10.27002-5.690002-5.409973-2.960022-10.829956-5.890015-16.25-8.820007-6.390015-3.450012-12.76001-6.900024-19.119995-10.390015-6.97998-3.830017-13.929993-7.700012-20.880005-11.570007-4.969971-2.77002-9.940002-5.539978-14.919983-8.299988-11.849976-6.549988-23.23999-13.25-32.359985-23.190002-8.960022-9.77002-17.220032-20.349976-25.210022-30.570007l-4.089966-5.23999c-7.430054-9.460022-17.060059-17.450012-29.460022-24.419983-4.160034-2.330017-8.470032-4.300049-13.030029-6.390015-3.119995-1.429993-6.349976-2.910034-9.5-4.51001-3.529968-1.780029-6.969971-3.75-10.299988-5.650024-2.130005-1.209961-4.26001-2.429993-6.419983-3.599976-10.780029-5.859985-21.559998-11.700012-32.350037-17.530029l-18.299988-9.909973c-8.099976-4.390015-16.209961-8.779968-24.299988-13.210022l-.559998-.299988c-12.659973-6.929993-25.75-14.099976-38.609985-21.200012-6.27002-3.469971-10.340027-9.109985-11.450012-15.880005-1.320007-8.059998,1.840027-15.559998,8.659973-20.569946,4.01001-2.940002,8.309998-4.430054,12.780029-4.430054,3.630005,0,7.27002.990051,10.830017,2.960022l3.669983,2.02002c5.909973,3.269958,11.820007,6.529968,17.73999,9.76001,10.179993,5.559998,20.369995,11.109985,30.549988,16.649963,8.429993,4.590027,16.860046,9.179993,25.290039,13.780029,4.919983,2.679993,9.820007,5.390015,14.72998,8.089966,10.469971,5.780029,21.299988,11.76001,32.070007,17.369995,14.880005,7.77002,25.929993,18.26001,33.779968,32.070007,6.230042,10.980042,15.050049,20.890015,26.960022,30.290039,15.030029,11.869995,32.179993,21.259949,48.77002,30.349976,3.820007,2.090027,7.630005,4.179993,11.429993,6.299988,11.789978,6.590027,23.880005,13.119995,35.570007,19.450012,5.709961,3.090027,11.419983,6.169983,17.119995,9.280029,4.380005,2.389954,8.75,4.789978,13.119995,7.179993,9.339966,5.130005,19,10.429993,28.559998,15.48999,8.27002,4.390015,12.890015,10.080017,14.089966,17.390015Z" fill="url(#linear-gradient)"/>
    <path d="M443.660374,267.443638l-.220032.76001c-.119995.409973-.23999.880005-.369995,1.389954-.380005,1.470032-.849976,3.290039-1.559998,5.119995-2.929993,7.52002-11.409973,13.190002-19.75,13.190002-2.52002-.009949-4.890015-.519958-7.029968-1.539978-4.040039-1.919983-8.25-4.089966-13.679993-7.029968-9.670044-5.26001-20.190002-11.030029-32.180054-17.670044-4.109985-2.269958-8.199951-4.570007-12.289978-6.859985-6.559998-3.690002-13.340027-7.48999-20.059998-11.119995-12.109985-6.539978-24.659973-14.109985-34.47998-25.080017-7-7.820007-13.559998-16.169983-19.890015-24.23999-3.049988-3.880005-6.200012-7.900024-9.349976-11.779968-6.560059-8.100037-14.940002-15.090027-24.920044-20.77002-4-2.27002-8.149963-4.210022-12.539978-6.25-3.5-1.640015-7.130005-3.320007-10.640015-5.190002-8.599976-4.580017-17.26001-9.349976-25.640015-13.960022-5.399963-2.97998-10.809998-5.950012-16.22998-8.899963-8.700012-4.720032-17.419983-9.420044-26.140015-14.119995-7.76001-4.170044-15.51001-8.350037-23.26001-12.550049-7.079956-3.839966-14.159973-7.709961-21.23999-11.569946-7.219971-3.950012-14.440002-7.890015-21.669983-11.810059-10.780029-5.839966-15.77002-17.509949-11.849976-27.72998,3.119995-8.159973,11.819946-14.070007,20.690002-14.070007,3.639954,0,7.149963.929993,10.429993,2.76001,11.079956,6.190002,22.619995,12.539978,35.299988,19.410034,8.029968,4.359985,16.080017,8.690002,24.130005,13.019958,8.72998,4.690002,17.459961,9.380005,26.169983,14.109985,15.47998,8.410034,31.140015,17.060059,44.609985,24.5,10.48999,5.810059,17.809998,12.01001,23.02002,19.52002,1.700012,2.450012,3.369995,4.929993,5.039978,7.400024,4.140015,6.159973,8.429993,12.519958,13.110046,18.269958,11.309998,13.880005,26.149963,23.470032,40.48999,31.77002,12.529968,7.25,25.51001,14.280029,38.059998,21.090027,5.469971,2.959961,10.940002,5.929993,16.390015,8.929993,17.899963,9.820007,35.679993,19.580017,53.469971,29.330017,5.650024,3.089966,13.23999,8.619995,14.030029,20.889954l.049988.780029Z" fill="url(#linear-gradient-2)"/>
    <path d="M307.920384,407.973606c.519958,5.200012-1.360046,10.559998-5.150024,14.710022-3.849976,4.200012-9.26001,6.609985-14.859985,6.609985-.280029,0-.570007,0-.859985-.019958l-.52002-.02002-.5-.130005c-1.450012-.400024-2.929993-.73999-4.51001-1.090027-3.669983-.839966-7.469971-1.699951-11.080017-3.380005-6.25-2.919983-12.289978-6.309998-18.139954-9.599976-2.030029-1.140015-4.070007-2.289978-6.110046-3.409973-5.700012-3.140015-11.380005-6.300049-17.059998-9.470032-11.380005-6.339966-23.149963-12.899963-34.849976-19.070007-22.210022-11.690002-39.52002-26.940002-52.919983-46.589966-11.050049-16.220032-22.140015-27.220032-34.880005-34.630005-4.410034-2.570007-9.190002-4.869995-13.820007-7.100037-3.100037-1.48999-6.320007-3.039978-9.450012-4.679993-5.280029-2.76001-10.559998-5.690002-15.659973-8.51001-2.210022-1.219971-4.410034-2.449951-6.610046-3.659973l-14.269958-7.820007c-11.630005-6.390015-23.27002-12.779968-34.920044-19.130005-6.320007-3.450012-10.279968-8.820007-11.429993-15.529968-1.380005-7.990051,1.73999-15.400024,8.559998-20.330017,4.080017-2.950012,8.429993-4.450012,12.929993-4.450012,3.5,0,6.980042.929993,10.340027,2.76001,5.320007,2.900024,10.650024,5.779968,15.97998,8.669983,4.390015,2.380005,8.790039,4.76001,13.179993,7.150024,3.559998,1.929993,7.100037,3.890015,10.650024,5.849976,7.210022,3.98999,14.659973,8.119995,22.090027,11.920044,13.97998,7.169983,24.459961,17.039978,32.029968,30.199951,5.679993,9.860046,12.75,18.559998,21.030029,25.850037,10.679993,9.389954,23.529968,18.159973,40.449951,27.589966,7.76001,4.330017,15.600037,8.809998,23.179993,13.130005,5.77002,3.290039,11.530029,6.580017,17.320007,9.840027,6.130005,3.459961,12.280029,6.880005,18.429993,10.299988,7.160034,3.97998,14.320007,7.969971,21.450012,12,10.27002,5.799988,20.890015,11.950012,31.590027,18.25,4.890015,2.890015,7.789978,7.650024,8.390015,13.789978Z" fill="url(#linear-gradient-3)"/>
    <path d="M374.00034,377.093601c-2.309998,9.910034-10.289978,16.580017-20.889954,17.51001-.340027.030029-.690002.02002-1.040039-.01001l-.48999-.039978-.869995-.169983c-.869995-.309998-1.76001-.590027-2.650024-.880005-2.199951-.700012-4.47998-1.429993-6.719971-2.580017-5.289978-2.73999-10.549988-5.659973-15.640015-8.47998-1.849976-1.030029-3.700012-2.049988-5.549988-3.070007l-11.940002-6.570007c-13.400024-7.369995-26.799988-14.72998-40.179993-22.119995-3.119995-1.72998-6.220032-3.5-9.320007-5.27002-5.349976-3.049988-10.890015-6.209961-16.409973-9.049988-11.01001-5.650024-20.51001-11.919983-29.050049-19.179993-10.559998-8.97998-18.799988-19.890015-26.769958-30.440002-1.780029-2.369995-3.570007-4.72998-5.380005-7.080017-8.090027-10.459961-16.75-18.289978-26.480042-23.950012-4.639954-2.689941-9.659973-5.089966-14.519958-7.409973-3.549988-1.700012-7.210022-3.450012-10.780029-5.340027-7.580017-4-15.200012-8.209961-22.570007-12.269958-3.709961-2.049988-7.429993-4.100037-11.149963-6.130005-13.23999-7.22998-26.48999-14.460022-39.75-21.660034-2.799988-1.519958-5.600037-3.039978-8.390015-4.559998-8.669983-4.72998-17.630005-9.609985-26.51001-14.259949-12.460022-6.530029-17.349976-18.809998-11.890015-29.850037,3.590027-7.25,11.610046-12.320007,19.490051-12.320007,2.619995,0,5.119995.549988,7.429993,1.630005,5.440002,2.559998,10.759949,5.440002,15.919983,8.220032l.339966.190002c12.140015,6.559998,24.27002,13.149963,36.400024,19.73999l13.940002,7.580017c3.669983,2,7.340027,4,11,6.009949,8.200012,4.480042,16.669983,9.119995,25.049988,13.530029,15.23999,8.02002,25.609985,16.929993,32.660034,28.039978l.549988.880005c3.899963,6.140015,7.919983,12.48999,12.52002,18.01001,13.169983,15.780029,30.449951,26.72998,47.159973,36.210022,14.070007,7.97998,28.570007,15.820007,42.599976,23.389954l5.350037,2.890015c11.880005,6.429993,23.799988,12.799988,35.719971,19.179993,7.590027,4.059998,15.179993,8.119995,22.76001,12.200012,2.150024,1.150024,4.299988,2.289978,6.460022,3.440002,6.359985,3.369995,12.950012,6.859985,19.289978,10.630005,8.789978,5.23999,12.549988,13.77002,10.299988,23.409973Z" fill="url(#linear-gradient-4)"/>
    <path d="M223.614618,29.080379c11.795187,6.429922,22.695719,12.373269,22.695719,12.373269,3.390015,1.839966,6.780029,3.699951,10.160034,5.559998,8.330017,4.570007,16.940002,9.299988,25.47998,13.75,15.51001,8.089966,26.130005,17.699951,33.419983,30.23999,3.220032,5.52002,7.200012,11.080017,12.190002,16.98999,12.570007,14.900024,28.840027,25.26001,41.610046,32.630005,11.199951,6.460022,22.809998,12.719971,34.029968,18.77002,6.929993,3.72998,14.090027,7.589966,21.100037,11.469971,1.309998.720032,2.639954,1.419983,3.97998,2.109985,5.789978,3,11.779968,6.100037,16.339966,11.840027,4.559998,5.719971,8.860046,12.789978,6.280029,21.830017-2.5,8.75-9.630005,14.190002-18.609985,14.190002-3.960022,0-8.030029-1.059998-11.77002-3.070007-10.809998-5.780029-22.320007-11.980042-33.780029-18.550049-6.619995-3.809998-15.309998-8.919983-23.709961-14.779968-14.960022-10.419983-25.77002-24.669983-34.720032-37.210022-10.539978-14.769958-22.179993-25.440002-35.559998-32.619995-3.909973-2.089966-8.029968-4.070007-12.019958-5.97998-3.880005-1.849976-7.880005-3.77002-11.780029-5.840027-7.049988-3.73999-14.140015-7.669983-20.98999-11.469971-4.539978-2.51001-9.070007-5.02002-13.630005-7.5-7.48999-4.070007-15-8.119995-22.51001-12.160034-6.51001-3.509949-13.029968-7.019958-19.529968-10.539978l-6.140015-3.330017c-10.570007-5.72998-21.52002-11.659973-32.190002-17.669983-3.900024-2.190002-12.950012-7.279968-11.72998-18.349976-.390015-8.140015,3.380005-14.640015,10.659973-18.340027,3.450012-1.75,7.150024-2.640015,11.02002-2.640015,4.26001,0,8.719971,1.070007,13.26001,3.190002,4.789978,2.230042,9.409973,4.820007,13.880005,7.320007,1.73999.960022,3.469971,1.929993,5.209961,2.880005,4.33221,2.357726,16.240383,8.848237,27.354268,14.90676" fill="url(#linear-gradient-5)"/>
    <path d="M158.565706,430.792237c-1.463626-.494545-1.626077-.505845-3.114396-.952866-3.52662-1.058149-7.17446-2.153425-10.656184-3.881363-6.475571-3.213802-12.860602-6.755815-19.035366-10.181246-2.850928-1.581654-5.701107-3.162565-8.566252-4.716001-12.530612-6.79517-22.310566-16.271727-29.068985-28.167544-7.71696-13.582173-18.046895-24.999782-30.703218-33.935011-4.822632-3.403897-9.848047-6.749132-14.707344-9.984467-4.084833-2.718514-8.308097-5.529847-12.425106-8.384992-7.142284-4.952135-11.249566-10.952024-12.207358-17.832589-.686916-4.928374.616579-9.430517,3.768313-13.020797,3.578251-4.075172,9.287589-6.5078,15.27304-6.5078,2.15129,0,4.236733.314103,6.19871.934884,9.607102,3.041527,18.113492,8.749589,24.599539,16.507861,4.622094,5.53059,8.88352,11.408698,13.00427,17.093741,2.106394,2.905639,4.283874,5.909296,6.465844,8.804539,8.619379,11.437658,17.986285,19.782552,28.634986,25.509921,2.707259,1.456904,5.576145,2.835096,8.350748,4.168734,2.828479,1.359628,5.753486,2.764552,8.607407,4.295712,12.302388,6.599134,25.040273,13.553213,38.941725,21.259505,6.23762,3.458104,10.07627,8.618899,11.099911,14.925464.952554,5.867712-.832082,11.94854-4.895963,16.682362-3.513151,4.092993-7.610652,6.781776-12.540287,7.303796l-2.277459.272949-2.152032.049462-2.594543-.244253Z" fill="url(#linear-gradient-6)"/>
    <path d="M411.669632,136.35276c-7.966135,0-14.05859-3.943738-19.434197-7.422634l-.426517-.27549c-10.401022-6.726855-17.075634-16.368259-23.530254-25.692591-1.307985-1.890559-2.615969-3.779633-3.952388-5.641232-6.349861-8.836469-14.292052-18.719948-25.067211-25.030227-7.831446-4.585311-16.074442-8.887706-24.046564-13.048272-4.357953-2.275205-8.865562-4.627637-13.277391-7.011256-9.48663-5.125895-18.760001-10.164167-27.897935-15.450455-8.333538-4.819217-11.005628-14.280179-6.973174-24.690877,2.88909-7.459762,8.979299-11.912897,16.290694-11.912897,1.083119,0,1.815578-.213209,3.036674-.171398,2.271898.077791,2.752304.266521,2.752304.266521,1.316697.146733,9.034917,1.072122,14.103912,3.827824,5.848517,3.178159,11.725468,6.308051,17.60242,9.4372l6.348365,3.38459c9.884712,5.277377,20.143562,11.280978,27.406318,21.459996,2.149046,3.012568,4.151429,6.134292,6.087965,9.153542.924868,1.440567,1.848239,2.881877,2.789569,4.311306,9.648257,14.678934,23.166592,27.196275,42.543921,39.394316,1.307985.8235,2.633928,1.621009,3.961368,2.418519,5.543221,3.331869,11.275007,6.777349,15.933767,12.153486,5.145139,5.939741,6.587813,13.078717,4.063133,20.100368-3.554306,9.893133-13.961314,10.291145-17.382427,10.421836-.312779.012624-.622565.017821-.930854.017821h-.001497Z" fill="url(#linear-gradient-7)"/>
  </g>
  <path d="M136.192556,279.216328c8.213871,8.979947,22.211828,9.616542,31.191778,1.402348l85.031083-53.691726c4.545518-4.161862,7.116674-9.989185,7.154204-16.163195s-2.462593-12.032095-6.957179-16.248974l-87.88273-52.244173c-8.879428-8.322422-22.884087-7.856629-31.206521,1.023024-8.322433,8.879428-7.856619,22.884087,1.023024,31.206521l27.300267,13.709379-126.848212-.171745c-12.126755-.073715-22.109069,9.787973-22.182785,21.914728s9.787962,22.109069,21.914728,22.182785l130.643266.176883-27.778559,15.706101c-9.09058,8.213198-9.726593,22.211138-1.402327,31.191756l-.000038.006287Z" fill="url(#linear-gradient-8)"/>
</svg>