<?xml version="1.0" encoding="UTF-8"?><svg id="Layer_1" xmlns="http://www.w3.org/2000/svg" xmlns:xlink="http://www.w3.org/1999/xlink" viewBox="0 0 451.68 431.04"><defs><linearGradient id="linear-gradient" x1="157.5" y1="216.46" x2="545.83" y2="216.46" gradientTransform="translate(577.29 2.71) rotate(-179.46) scale(1 -1)" gradientUnits="userSpaceOnUse"><stop offset="0" stop-color="#ebb895" stop-opacity="0"/><stop offset=".08" stop-color="#eab795" stop-opacity=".02"/><stop offset=".15" stop-color="#e9b695" stop-opacity=".07"/><stop offset=".21" stop-color="#e7b596" stop-opacity=".15"/><stop offset=".28" stop-color="#e5b397" stop-opacity=".27"/><stop offset=".34" stop-color="#e1b198" stop-opacity=".43"/><stop offset=".4" stop-color="#ddae9a" stop-opacity=".62"/><stop offset=".46" stop-color="#d9ab9c" stop-opacity=".84"/><stop offset=".5" stop-color="#d6a99e"/><stop offset=".57" stop-color="#cfa4a0"/><stop offset=".66" stop-color="#be98a8"/><stop offset=".76" stop-color="#a183b5"/><stop offset=".87" stop-color="#7966c6"/><stop offset=".99" stop-color="#4742dc"/><stop offset="1" stop-color="#4541de"/></linearGradient><linearGradient id="linear-gradient-2" x1="199.18" y1="269.17" x2="568.91" y2="269.17" xlink:href="#linear-gradient"/><linearGradient id="linear-gradient-3" x1="131.14" y1="162.04" x2="499.42" y2="162.04" xlink:href="#linear-gradient"/><linearGradient id="linear-gradient-4" x1="123.75" y1="110.71" x2="434.95" y2="110.71" xlink:href="#linear-gradient"/><linearGradient id="linear-gradient-5" x1="265.46" y1="321.23" x2="575.12" y2="321.23" xlink:href="#linear-gradient"/><linearGradient id="linear-gradient-6" x1="390.18" y1="363.89" x2="556.48" y2="363.89" xlink:href="#linear-gradient"/><linearGradient id="linear-gradient-7" x1="144.99" y1="67.61" x2="311.89" y2="67.61" xlink:href="#linear-gradient"/><linearGradient id="linear-gradient-8" x1="237.52" y1="61.35" x2="237.52" y2="40.61" gradientTransform="translate(44.92 -38.39) scale(1 1.06)" gradientUnits="userSpaceOnUse"><stop offset="0" stop-color="#327ebd"/><stop offset="1" stop-color="#1565a7"/></linearGradient><linearGradient id="linear-gradient-9" x1="244.55" y1="68.61" x2="244.55" y2="47.87" gradientTransform="translate(44.92 -38.39) scale(1 1.06)" gradientUnits="userSpaceOnUse"><stop offset="0" stop-color="#ffda4b"/><stop offset="1" stop-color="#f9c600"/></linearGradient></defs><path d="m393.07,347.49c-.84-.31-1.69-.59-2.54-.86-2.13-.7-4.33-1.42-6.48-2.57-5.35-2.85-10.71-5.83-15.89-8.72-3.42-1.91-6.84-3.82-10.28-5.69-5.41-2.96-10.83-5.89-16.25-8.82-6.38-3.45-12.76-6.9-19.12-10.39-6.97-3.83-13.93-7.7-20.88-11.57-4.97-2.77-9.94-5.54-14.92-8.29-11.85-6.55-23.24-13.26-32.36-23.2-8.96-9.77-17.22-20.34-25.2-30.57l-4.09-5.23c-7.43-9.47-17.06-17.45-29.46-24.42-4.15-2.33-8.46-4.31-13.02-6.39-3.12-1.43-6.35-2.91-9.51-4.51-3.52-1.79-6.97-3.75-10.29-5.65-2.13-1.22-4.27-2.43-6.42-3.61-10.78-5.86-21.56-11.69-32.35-17.53l-18.3-9.91c-8.11-4.39-16.21-8.78-24.3-13.21l-.56-.31c-12.66-6.93-25.76-14.09-38.61-21.2-6.28-3.47-10.34-9.11-11.45-15.87-1.32-8.07,1.83-15.57,8.65-20.57,4.01-2.94,8.31-4.44,12.79-4.44,3.63,0,7.27,1,10.83,2.96l3.67,2.03c5.91,3.26,11.82,6.53,17.74,9.76,10.18,5.56,20.36,11.1,30.55,16.65,8.43,4.59,16.86,9.18,25.28,13.78,4.92,2.68,9.82,5.39,14.73,8.1,10.48,5.78,21.31,11.75,32.07,17.37,14.89,7.77,25.94,18.26,33.78,32.07,6.23,10.98,15.05,20.88,26.96,30.29,15.03,11.87,32.18,21.26,48.77,30.35,3.82,2.09,7.64,4.18,11.44,6.31,11.78,6.58,23.87,13.12,35.56,19.44,5.71,3.09,11.42,6.18,17.13,9.28,4.38,2.39,8.75,4.79,13.12,7.18,9.34,5.13,19,10.43,28.55,15.49,8.28,4.39,12.89,10.07,14.1,17.39.95,5.75-.7,11.8-4.53,16.59-4.11,5.14-10.67,8.14-16.99,8.78l-1-.06-.9-.22Z" style="fill:url(#linear-gradient); stroke-width:0px;"/><path d="m350.72,394.38c-.87-.31-1.76-.59-2.65-.88-2.21-.7-4.49-1.43-6.73-2.59-5.29-2.73-10.55-5.65-15.64-8.48-1.85-1.03-3.69-2.05-5.54-3.07l-11.95-6.57c-13.4-7.37-26.79-14.73-40.18-22.12-3.12-1.72-6.22-3.49-9.32-5.26-5.35-3.06-10.89-6.22-16.41-9.05-11.01-5.65-20.51-11.92-29.04-19.18-10.57-8.99-18.8-19.89-26.77-30.44-1.79-2.37-3.57-4.73-5.39-7.08-8.09-10.46-16.75-18.3-26.48-23.95-4.64-2.69-9.66-5.1-14.52-7.42-3.54-1.69-7.21-3.45-10.78-5.33-7.58-4.01-15.2-8.21-22.57-12.28-3.71-2.05-7.43-4.1-11.15-6.13-13.24-7.23-26.49-14.45-39.75-21.65-2.8-1.52-5.6-3.04-8.39-4.57-8.67-4.72-17.63-9.61-26.5-14.26-12.46-6.53-17.35-18.8-11.89-29.84,3.59-7.26,11.6-12.33,19.49-12.33,2.62,0,5.12.55,7.43,1.64,5.44,2.56,10.77,5.43,15.92,8.22l.34.19c12.14,6.56,24.27,13.15,36.4,19.75l13.94,7.58c3.67,1.99,7.34,4,11,6.01,8.19,4.48,16.66,9.12,25.05,13.53,15.23,8.02,25.61,16.93,32.65,28.04l.56.88c3.89,6.14,7.91,12.49,12.52,18.01,13.17,15.78,30.45,26.73,47.16,36.21,14.07,7.98,28.57,15.82,42.6,23.39l5.35,2.89c11.89,6.43,23.8,12.8,35.72,19.18,7.59,4.06,15.18,8.12,22.77,12.2,2.15,1.15,4.3,2.29,6.45,3.44,6.37,3.38,12.95,6.87,19.29,10.64,8.8,5.23,12.55,13.76,10.31,23.4-2.31,9.91-10.29,16.58-20.89,17.51-.35.03-.7.03-1.04,0l-.49-.04-.87-.17Z" style="fill:url(#linear-gradient-2); stroke-width:0px;"/><path d="m421.76,287.9c-2.52,0-4.89-.52-7.04-1.54-4.03-1.92-8.25-4.08-13.67-7.03-9.67-5.25-20.2-11.03-32.18-17.66-4.11-2.27-8.2-4.57-12.29-6.87-6.56-3.68-13.34-7.49-20.06-11.12-12.11-6.54-24.66-14.11-34.48-25.08-7-7.82-13.55-16.17-19.89-24.24-3.05-3.88-6.2-7.9-9.34-11.78-6.56-8.1-14.94-15.09-24.92-20.77-4-2.28-8.15-4.21-12.54-6.26-3.5-1.63-7.13-3.32-10.64-5.19-8.6-4.57-17.26-9.34-25.63-13.95-5.41-2.98-10.81-5.96-16.24-8.9-8.7-4.73-17.42-9.42-26.14-14.12-7.76-4.18-15.51-8.36-23.26-12.55-7.09-3.84-14.17-7.71-21.24-11.57-7.22-3.94-14.44-7.89-21.68-11.81-10.78-5.84-15.76-17.5-11.85-27.73,3.12-8.15,11.82-14.07,20.69-14.07,3.64,0,7.15.93,10.43,2.77,11.07,6.19,22.62,12.54,35.29,19.41,8.03,4.36,16.08,8.68,24.14,13.01,8.73,4.69,17.46,9.38,26.17,14.12,15.47,8.41,31.14,17.06,44.6,24.5,10.5,5.8,17.81,12,23.02,19.52,1.7,2.45,3.37,4.93,5.04,7.4,4.14,6.15,8.43,12.52,13.11,18.26,11.31,13.88,26.15,23.48,40.49,31.77,12.53,7.25,25.51,14.28,38.05,21.09,5.47,2.97,10.94,5.93,16.39,8.93,17.9,9.82,35.68,19.58,53.47,29.34,5.64,3.09,13.24,8.62,14.03,20.88l.05.79-.22.76c-.12.41-.24.88-.37,1.39-.38,1.47-.85,3.29-1.56,5.12-2.93,7.52-11.41,13.18-19.75,13.18h0Z" style="fill:url(#linear-gradient-3); stroke-width:0px;"/><path d="m432.29,220.83c-3.96,0-8.03-1.06-11.77-3.06-10.81-5.78-22.32-11.98-33.77-18.56-6.63-3.8-15.31-8.92-23.71-14.77-14.96-10.43-25.77-24.68-34.72-37.22-10.54-14.77-22.18-25.43-35.56-32.61-3.91-2.1-8.03-4.07-12.02-5.98-3.87-1.85-7.88-3.77-11.78-5.84-7.06-3.74-14.14-7.67-21-11.47-4.53-2.51-9.07-5.02-13.62-7.5-7.49-4.08-15-8.12-22.51-12.16-6.51-3.51-13.03-7.02-19.53-10.54l-6.14-3.33c-10.58-5.73-21.52-11.66-32.2-17.67-3.9-2.19-12.95-7.28-11.72-18.35-.4-8.14,3.38-14.65,10.66-18.35,3.44-1.75,7.15-2.64,11.02-2.64,4.25,0,8.71,1.07,13.25,3.19,4.79,2.23,9.41,4.82,13.89,7.32,1.73.97,3.46,1.94,5.2,2.88,8.93,4.86,50.05,27.28,50.05,27.28,3.39,1.85,6.78,3.7,10.16,5.56,8.33,4.57,16.94,9.3,25.48,13.75,15.51,8.09,26.13,17.7,33.42,30.24,3.21,5.52,7.2,11.08,12.18,16.99,12.57,14.9,28.85,25.27,41.62,32.63,11.2,6.46,22.81,12.72,34.03,18.77,6.92,3.73,14.08,7.59,21.09,11.47,1.31.73,2.65,1.42,3.99,2.11,5.79,3,11.77,6.1,16.34,11.84,4.55,5.72,8.86,12.79,6.28,21.83-2.5,8.75-9.63,14.18-18.61,14.18h0Z" style="fill:url(#linear-gradient-4); stroke-width:0px;"/><path d="m287.91,429.3c-.29,0-.57,0-.86-.02l-.52-.02-.5-.14c-1.45-.4-2.93-.73-4.51-1.09-3.67-.83-7.47-1.69-11.09-3.38-6.25-2.91-12.29-6.31-18.13-9.59-2.04-1.14-4.07-2.29-6.12-3.41-5.7-3.13-11.38-6.3-17.06-9.47-11.38-6.34-23.15-12.91-34.85-19.07-22.21-11.7-39.52-26.94-52.92-46.6-11.05-16.21-22.14-27.22-34.88-34.63-4.41-2.57-9.19-4.87-13.82-7.09-3.11-1.49-6.32-3.04-9.46-4.68-5.28-2.76-10.56-5.69-15.66-8.52-2.2-1.22-4.4-2.44-6.61-3.65l-14.27-7.83c-11.63-6.39-23.27-12.78-34.92-19.13-6.33-3.45-10.28-8.82-11.44-15.53-1.37-7.99,1.75-15.4,8.56-20.33,4.08-2.95,8.43-4.45,12.93-4.45,3.51,0,6.99.93,10.34,2.76,5.32,2.9,10.65,5.78,15.98,8.67,4.4,2.38,8.8,4.76,13.19,7.15,3.56,1.94,7.1,3.9,10.64,5.86,7.21,3.99,14.67,8.12,22.09,11.92,13.98,7.16,24.46,17.04,32.03,30.19,5.68,9.86,12.75,18.56,21.03,25.85,10.67,9.4,23.53,18.17,40.45,27.6,7.76,4.33,15.6,8.8,23.18,13.13,5.77,3.29,11.53,6.58,17.32,9.84,6.13,3.45,12.28,6.87,18.43,10.29,7.16,3.98,14.32,7.97,21.46,12,10.26,5.8,20.89,11.95,31.59,18.25,4.89,2.88,7.79,7.65,8.39,13.78.51,5.2-1.37,10.56-5.16,14.71-3.84,4.2-9.26,6.62-14.85,6.62h0Z" style="fill:url(#linear-gradient-5); stroke-width:0px;"/><path d="m158.57,430.79c-1.46-.49-1.63-.51-3.11-.95-3.53-1.06-7.17-2.15-10.66-3.88-6.48-3.21-12.86-6.76-19.04-10.18-2.85-1.58-5.7-3.16-8.57-4.72-12.53-6.8-22.31-16.27-29.07-28.17-7.72-13.58-18.05-25-30.7-33.94-4.82-3.4-9.85-6.75-14.71-9.98-4.08-2.72-8.31-5.53-12.43-8.38-7.14-4.95-11.25-10.95-12.21-17.83-.69-4.93.62-9.43,3.77-13.02,3.58-4.08,9.29-6.51,15.27-6.51,2.15,0,4.24.31,6.2.93,9.61,3.04,18.11,8.75,24.6,16.51,4.62,5.53,8.88,11.41,13,17.09,2.11,2.91,4.28,5.91,6.47,8.8,8.62,11.44,17.99,19.78,28.63,25.51,2.71,1.46,5.58,2.84,8.35,4.17,2.83,1.36,5.75,2.76,8.61,4.3,12.3,6.6,25.04,13.55,38.94,21.26,6.24,3.46,10.08,8.62,11.1,14.93.95,5.87-.83,11.95-4.9,16.68-3.51,4.09-7.61,6.78-12.54,7.3l-2.28.27-2.15.05-2.59-.24Z" style="fill:url(#linear-gradient-6); stroke-width:0px;"/><path d="m411.67,136.35c-7.97,0-14.06-3.94-19.43-7.42l-.43-.28c-10.4-6.73-17.08-16.37-23.53-25.69-1.31-1.89-2.62-3.78-3.95-5.64-6.35-8.84-14.29-18.72-25.07-25.03-7.83-4.59-16.07-8.89-24.05-13.05-4.36-2.28-8.87-4.63-13.28-7.01-9.49-5.13-18.76-10.16-27.9-15.45-8.33-4.82-11.01-14.28-6.97-24.69,2.89-7.46,8.98-11.91,16.29-11.91,1.08,0,1.82-.21,3.04-.17,2.27.08,2.75.27,2.75.27,1.32.15,9.03,1.07,14.1,3.83,5.85,3.18,11.73,6.31,17.6,9.44l6.35,3.38c9.88,5.28,20.14,11.28,27.41,21.46,2.15,3.01,4.15,6.13,6.09,9.15.92,1.44,1.85,2.88,2.79,4.31,9.65,14.68,23.17,27.2,42.54,39.39,1.31.82,2.63,1.62,3.96,2.42,5.54,3.33,11.28,6.78,15.93,12.15,5.15,5.94,6.59,13.08,4.06,20.1-3.55,9.89-13.96,10.29-17.38,10.42-.31.01-.62.02-.93.02h0Z" style="fill:url(#linear-gradient-7); stroke-width:0px;"/><circle cx="28.25" cy="163.18" r="18.32" style="fill:#fff; stroke-width:0px;"/><circle cx="21.17" cy="231.99" r="18.32" style="fill:#fff; stroke-width:0px;"/><circle cx="36.49" cy="311.55" r="15.96" style="fill:#fff; stroke-width:0px;"/><circle cx="52.06" cy="105.74" r="18.32" style="fill:#fff; stroke-width:0px;"/><circle cx="98.59" cy="56.8" r="18.32" style="fill:#fff; stroke-width:0px;"/><circle cx="163.96" cy="21.98" r="18.32" style="fill:#fff; stroke-width:0px;"/><circle cx="286.73" cy="20.1" r="18.32" style="fill:#fff; stroke-width:0px;"/><path d="m44.6,308.99c.22.85-.73,1.75-.73,1.75,0,0-1.73,1.1-1.39-3.62.34-4.73-7.4-9.37-7.4-9.37,0,0,.04.45,0,3.57-.06,3.92-2.4,2.58-2.4,2.58-2.34,2.42-2.13,7.87-2.13,7.87-2.9,2.47-3-2.66-3-2.66,0,0-5.52,5.37.38,11.12,0,0,.87.83-.52.57-.99-.19-1.21-.57-1.21-.57,0,0,.19,2.38,7.15,3.87.13.03,2.3.44,4.74-.03,5.36-1.16,6.3-3.31,6.3-3.31,0,0-.11.19-1,.28-.96.09-.14-.79-.14-.79,6.3-3.81,1.12-12.08,1.34-11.23Z" style="fill:#ff4c1f; stroke-width:0px;"/><path d="m42.31,316.83c1.25-1.89.29-3.3.29-3.3-1.97.97-2.55.29-2.73-.26-.07-.22-.08-.45-.04-.67,1.28-7.18-3.66-11.06-3.53-10.11.04.29-.01.67-.11,1.06-.22.93-.63,1.8-1.19,2.58-.77,1.07-2.17,3.37-2.93,6.83-1.09,4.95-4.22,1.37-4.22,1.37,0,0-1.83,6.04,5.64,9.79.44.07,1.83.27,3.51.1,4.91-2.23,6.68-6.57,6.68-6.57,0,0-2.63,1.09-1.38-.81Z" style="fill:#ff9c45; stroke-width:0px;"/><path d="m40.6,315.55s0,0,0,0h0Z" style="fill:#ffdd56; stroke-width:0px;"/><path d="m40.6,315.55c-.03.06-.55,1.29-2.51,1.61-2.01.32-1.12-6.41-1.12-6.41-4.93,2.25-4.01,7.53-4.01,7.53,0,0-.79.73-1.8,0-.34-.25.41,4.25,3.63,5.98.6.04,1.34.04,2.16-.03,2.22-1.48,3.4-6.14,3.4-6.14l-1.02.6,1.27-3.14Z" style="fill:#ffdd56; stroke-width:0px;"/><path d="m26.44,308.45s-.29-2.44,1.12-3.51c.22-.17.37-.3.48-.55.09-.2.23-.53.16-.77-.17-.6,1.88,2.74-1.76,4.83Z" style="fill:#ff4c1f; stroke-width:0px;"/><path d="m36.96,324.22c.9-.91,2.09-4.53,2.09-4.53,0,0-.26.74-1.23.64-1.33-.14-2.06-3.55-2.06-3.55,0,0-1.11,2.9-1.34,3.33-.49.9-1.39,0-1.39,0-.24,1.47,1.67,3.59,2.21,4.16.51.01,1.09,0,1.71-.06Z" style="fill:#fcfbcc; stroke-width:0px;"/><path d="m282.97,4.79c-2.2,0-3.98,1.83-3.98,4.1v2.84s6.89,0,6.89,0v.79h-9.95c-2.2,0-3.98,1.83-3.98,4.1v6.14c0,2.26,1.78,4.1,3.98,4.1h2.3s0-3.47,0-3.47c0-2.26,1.78-4.1,3.98-4.1h7.34c1.86,0,3.37-1.55,3.37-3.47v-6.93c0-2.26-1.78-4.1-3.98-4.1h-5.97Zm-.92,5.04c.76,0,1.38-.63,1.38-1.42s-.62-1.42-1.38-1.42-1.38.63-1.38,1.42.62,1.42,1.38,1.42Z" style="fill:url(#linear-gradient-8); fill-rule:evenodd; stroke-width:0px;"/><path d="m288.93,34.56c2.2,0,3.98-1.83,3.98-4.1v-2.84s-6.89,0-6.89,0v-.79h9.95c2.2,0,3.98-1.83,3.98-4.1v-6.14c0-2.26-1.78-4.1-3.98-4.1h-2.3s0,3.47,0,3.47c0,2.26-1.78,4.1-3.98,4.1h-7.34c-1.86,0-3.37,1.55-3.37,3.47v6.93c0,2.26,1.78,4.1,3.98,4.1h5.97Zm.92-5.04c-.76,0-1.38.63-1.38,1.42s.62,1.42,1.38,1.42,1.38-.63,1.38-1.42-.62-1.42-1.38-1.42Z" style="fill:url(#linear-gradient-9); fill-rule:evenodd; stroke-width:0px;"/><path d="m163.11,12.99c6.5-5.05,3.16-8.33,3.16-8.33.5,5.22-5.37,6.45-6.95,10.04-1.07,2.45.74,4.59,3.78,7.29-.27-.6-.68-1.18-1.1-1.77-1.43-2.01-2.93-4.1,1.11-7.23Z" style="fill:#e76f00; stroke-width:0px;"/><path d="m164.15,23.09s1.96-1.58.41-3.33c-5.25-5.95,5.74-8.65,5.74-8.65-6.71,3.23-5.71,5.15-4.02,7.49,1.81,2.5-2.13,4.5-2.13,4.5Z" style="fill:#e76f00; stroke-width:0px;"/><path d="m169.91,27.8c6.03-3.08,3.24-6.04,1.3-5.64-.48.1-.69.18-.69.18,0,0,.18-.27.51-.39,3.85-1.33,6.81,3.92-1.24,6,0,0,.09-.08.12-.16Z" style="fill:#5382a1; stroke-width:0px;"/><path d="m157.37,23.9c-3.77-.5,2.07-1.86,2.07-1.86,0,0-2.27-.15-5.05,1.17-3.3,1.57,8.15,2.28,14.08.75.62-.41,1.47-.77,1.47-.77,0,0-2.43.43-4.84.63-2.96.24-6.13.29-7.72.08Z" style="fill:#5382a1; stroke-width:0px;"/><path d="m158.8,26.84c-2.1-.21-.73-1.22-.73-1.22-5.44,1.78,3.03,3.79,10.63,1.6-.81-.28-1.32-.79-1.32-.79-3.72.7-5.86.68-8.58.41Z" style="fill:#5382a1; stroke-width:0px;"/><path d="m159.72,30.02c-2.1-.24-.87-.94-.87-.94-4.94,1.36,3,4.16,9.29,1.51-1.03-.39-1.77-.85-1.77-.85-2.8.52-4.11.56-6.65.28Z" style="fill:#5382a1; stroke-width:0px;"/><path d="m172.87,31.64s.91.74-1,1.31c-3.63,1.08-15.1,1.41-18.29.04-1.15-.49,1-1.17,1.68-1.31.7-.15,1.11-.12,1.11-.12-1.27-.88-8.24,1.73-3.54,2.48,12.82,2.04,23.37-.92,20.04-2.4Z" style="fill:#5382a1; stroke-width:0px;"/><path d="m174.9,33.25c-.21,2.69-9.09,3.26-14.88,2.89-3.77-.24-4.53-.83-4.54-.84,3.61.59,9.7.69,14.64-.22,4.38-.81,4.78-1.83,4.78-1.83Z" style="fill:#5382a1; stroke-width:0px;"/><path d="m110.47,51.11c0-.46-.1-.86-.3-1.21-.19-.34-.49-.63-.88-.85-3.22-1.86-6.44-3.71-9.66-5.57-.87-.5-1.71-.48-2.57.03-1.28.76-7.7,4.43-9.61,5.54-.79.46-1.17,1.15-1.17,2.06,0,3.73,0,7.47,0,11.2,0,.45.09.84.28,1.18.19.35.49.64.89.88,1.91,1.11,8.33,4.78,9.61,5.54.86.51,1.7.53,2.57.03,3.22-1.86,6.44-3.71,9.66-5.57.4-.23.69-.52.89-.88.19-.34.28-.74.28-1.18,0,0,0-7.47,0-11.2" style="fill:#a179dc; stroke-width:0px;"/><path d="m98.42,56.67l-11.85,6.82c.19.35.49.64.89.88,1.91,1.11,8.33,4.78,9.61,5.54.86.51,1.7.53,2.57.03,3.22-1.86,6.44-3.71,9.66-5.57.4-.23.69-.52.89-.88l-11.78-6.82" style="fill:#280068; stroke-width:0px;"/><path d="m110.47,51.11c0-.46-.1-.86-.3-1.21l-11.76,6.77,11.78,6.82c.19-.34.28-.74.28-1.18,0,0,0-7.47,0-11.2" style="fill:#390091; stroke-width:0px;"/><path d="m105.39,54.12v1.28h1.28v-1.28h.64v1.28h1.28v.64h-1.28v1.28h1.28v.64h-1.28v1.28h-.64v-1.28h-1.28v1.28h-.64v-1.28h-1.28v-.64h1.28v-1.28h-1.28v-.64h1.28v-1.28h.64Zm1.28,1.91h-1.28v1.28h1.28v-1.28Z" style="fill:#fff; stroke-width:0px;"/><path d="m98.44,47.72c3.33,0,6.23,1.81,7.79,4.49l-.02-.03-3.91,2.25c-.77-1.31-2.18-2.19-3.81-2.2h-.05c-2.47,0-4.48,2-4.48,4.48,0,.81.22,1.57.59,2.22.77,1.35,2.22,2.26,3.89,2.26s3.13-.92,3.9-2.28l-.02.03,3.91,2.26c-1.54,2.66-4.4,4.46-7.69,4.5h-.1c-3.34,0-6.25-1.82-7.8-4.52-.76-1.32-1.19-2.85-1.19-4.47,0-4.97,4.03-8.99,8.99-8.99Z" style="fill:#fff; stroke-width:0px;"/><path d="m39.96,95.17h22.06v22.06h-22.06v-22.06Z" style="fill:#f7df1e; stroke-width:0px;"/><path d="m45.76,113.61l1.69-1.02c.33.58.62,1.07,1.33,1.07s1.11-.27,1.11-1.3v-7.05h2.07v7.08c0,2.15-1.26,3.12-3.1,3.12-1.66,0-2.62-.86-3.11-1.9" style="stroke-width:0px;"/><path d="m53.09,113.39l1.69-.98c.44.73,1.02,1.26,2.04,1.26.86,0,1.41-.43,1.41-1.02,0-.71-.56-.96-1.51-1.38l-.52-.22c-1.5-.64-2.49-1.44-2.49-3.12,0-1.55,1.18-2.74,3.04-2.74,1.32,0,2.27.46,2.95,1.66l-1.61,1.04c-.36-.64-.74-.89-1.33-.89s-.99.39-.99.89c0,.62.39.87,1.27,1.26l.52.22c1.76.76,2.75,1.53,2.75,3.26,0,1.87-1.47,2.89-3.44,2.89s-3.17-.92-3.78-2.12" style="stroke-width:0px;"/><path d="m16.75,163.18v-10.96h21.92v21.92h-21.92" style="fill:#007acc; stroke-width:0px;"/><path d="m21.55,163.22v.89h2.85v8.11h2.02v-8.11h2.85v-.88c0-.49,0-.89-.02-.9,0-.02-1.74-.02-3.85-.02l-3.84.02v.9h-.02s0,0,0,0Zm12.81-.92c.56.13.99.38,1.37.78.2.22.5.6.53.7,0,.03-.95.67-1.52,1.03-.02.02-.11-.08-.2-.22-.28-.41-.58-.58-1.03-.61-.66-.04-1.1.3-1.1.88,0,.18.03.27.1.42.15.3.42.48,1.27.85,1.57.67,2.25,1.12,2.66,1.75.47.71.57,1.83.26,2.67-.35.92-1.21,1.53-2.43,1.74-.38.07-1.26.05-1.67-.02-.88-.16-1.72-.6-2.23-1.17-.2-.22-.59-.81-.57-.84l.21-.13.82-.48.62-.36.14.19c.18.28.59.67.82.8.71.37,1.67.32,2.14-.11.2-.19.29-.38.29-.66,0-.25-.04-.37-.16-.56-.18-.24-.53-.44-1.51-.88-1.13-.48-1.62-.79-2.07-1.26-.26-.28-.49-.73-.6-1.1-.08-.32-.11-1.1-.03-1.41.24-1.1,1.06-1.86,2.25-2.08.38-.08,1.29-.04,1.67.05h-.01s0,.01,0,.01Z" style="fill:#fff; stroke-width:0px;"/><path d="m20.28,228.49c-1.31.33-2.2.58-3.49.92-.31.08-.33.1-.6-.21-.31-.35-.54-.58-.98-.79-1.31-.64-2.58-.46-3.76.31-1.41.92-2.14,2.27-2.12,3.95.02,1.66,1.16,3.04,2.81,3.27,1.41.19,2.6-.31,3.54-1.37.19-.23.35-.48.56-.77h-4.01c-.44,0-.54-.27-.4-.62.27-.64.77-1.73,1.06-2.27.09-.2.3-.34.52-.33h7.57c-.04.56-.04,1.12-.12,1.68-.22,1.48-.8,2.88-1.71,4.08-1.5,1.98-3.45,3.2-5.93,3.54-2.04.27-3.93-.12-5.59-1.37-1.5-1.09-2.46-2.77-2.64-4.62-.27-2.27.4-4.3,1.77-6.09,1.48-1.93,3.43-3.16,5.82-3.6,1.95-.35,3.83-.12,5.51,1.02,1.08.72,1.92,1.74,2.41,2.93.13.19.04.29-.21.35Z" style="fill:#00acd7; stroke-width:0px;"/><path d="m27.16,239.99c-1.89-.04-3.62-.58-5.07-1.83-1.21-1.02-2.01-2.45-2.25-4.01-.37-2.35.27-4.43,1.68-6.28,1.52-2,3.35-3.04,5.82-3.47,2.12-.37,4.12-.17,5.93,1.06,1.64,1.12,2.66,2.64,2.93,4.64.35,2.81-.46,5.1-2.39,7.05-1.36,1.37-3.1,2.3-4.99,2.66-.56.1-1.12.12-1.66.19Zm4.95-8.4c0-.23-.03-.46-.06-.69-.37-2.06-2.27-3.22-4.24-2.77-1.93.44-3.18,1.66-3.64,3.62-.39,1.6.41,3.25,1.91,3.93,1.14.5,2.29.44,3.39-.12,1.64-.85,2.54-2.18,2.64-3.97Z" style="fill:#00acd7; stroke-width:0px;"/></svg>