<?xml version="1.0" encoding="UTF-8"?><svg id="Layer_1" xmlns="http://www.w3.org/2000/svg" xmlns:xlink="http://www.w3.org/1999/xlink" viewBox="0 0 494.46 488.98"><defs><linearGradient id="linear-gradient" x1="-52.02" y1="463.8" x2="538.38" y2="463.8" gradientUnits="userSpaceOnUse"><stop offset="0" stop-color="#fbeebc"/><stop offset=".09" stop-color="#f7d6be"/><stop offset=".3" stop-color="#efa2c2"/><stop offset=".46" stop-color="#ea82c5"/><stop offset=".55" stop-color="#e976c7"/><stop offset="1" stop-color="#4541de"/></linearGradient><linearGradient id="linear-gradient-2" x1="-137.62" y1="-185.51" x2="452.79" y2="-185.51" gradientTransform="translate(400.77 187.91) rotate(-180)" xlink:href="#linear-gradient"/><linearGradient id="linear-gradient-3" x1="-137.62" y1="-241.96" x2="452.79" y2="-241.96" gradientTransform="translate(400.77 35.64) rotate(-180)" xlink:href="#linear-gradient"/><linearGradient id="linear-gradient-4" x1="-137.62" y1="-301.85" x2="452.79" y2="-301.85" gradientTransform="translate(400.77 -125.92) rotate(-180)" xlink:href="#linear-gradient"/><linearGradient id="linear-gradient-5" x1="-137.62" y1="-366.19" x2="452.79" y2="-366.19" gradientTransform="translate(400.77 -299.48) rotate(-180)" xlink:href="#linear-gradient"/></defs><path d="m412.28,286.41c-36.37,0-53.45,6.61-73.23,14.27-22.35,8.65-47.69,18.46-95.86,18.46s-72.85-9.83-95-18.5c-19.49-7.63-36.32-14.22-72.14-14.22-24.45,0-35.13,5.46-49.91,13.01-7.52,3.84-15.84,8.1-26.14,11.67v32.38c12.1-5.56,27.85-10.31,50.07-10.31,53.12,0,81.2,8.78,105.97,16.53,23.45,7.34,43.71,13.67,87.15,13.67s64.5-6.35,88.25-13.7c24.99-7.74,53.31-16.51,106.89-16.51,26.31,0,43.43,6.84,56.14,13.75v-33.44c-13.82-3.95-24.23-9.35-33.42-14.12-14.46-7.5-24.91-12.93-48.76-12.93Z" fill="none" stroke-width="0"/><path d="m400.62,173.41c-29.5,0-42.77,9.33-61.13,22.25-20.98,14.76-47.09,33.13-96.31,33.13s-75.34-18.37-96.33-33.12c-18.37-12.92-31.64-22.25-61.16-22.25-23.51,0-33.99,8.43-49.84,21.18-9.88,7.95-21.03,16.9-35.85,23.65v36.46c16.84-8.57,38.07-18.64,76.05-18.64,47.75,0,72.85,9.83,95,18.5,19.49,7.63,36.32,14.22,72.14,14.22s53.45-6.61,73.23-14.27c22.35-8.65,47.69-18.46,95.86-18.46,39.2,0,60.35,10.98,77.35,19.8,1.66.86,3.26,1.69,4.84,2.49v-36.8c-19.02-6.91-32.37-17.63-43.97-26.96-15.87-12.76-26.35-21.18-49.87-21.18Z" fill="none" stroke-width="0"/><path d="m438.32,383.5c-43.99,0-64.5,6.35-88.25,13.7-24.99,7.74-53.31,16.51-106.89,16.51s-81.2-8.78-105.97-16.53c-23.45-7.34-43.71-13.67-87.15-13.67-16.95,0-23.87,4.1-35.34,10.88-4.31,2.55-9.12,5.4-14.73,8.1v36.15h494.46v-32.88c-8.93-3.6-15.98-7.85-22.03-11.5-11.11-6.7-17.81-10.75-34.11-10.75Z" fill="none" stroke-width="0"/><path d="m444.65,81.96c-17.8-20.77-28.05-31.61-48.65-31.61s-32.04,10.91-50.34,31.81c-18.93,21.63-44.86,51.26-95.07,51.26-53.08,0-79.99-27.91-101.6-50.33-30.1-31.22-41.32-32.74-58.57-32.74-20.62,0-30.87,10.84-48.69,31.62-10.61,12.38-23.47,27.35-41.74,37.95v35.61c18.59-14.9,42.07-32.45,85.7-32.45,49.23,0,75.34,18.37,96.33,33.12,18.37,12.92,31.64,22.25,61.16,22.25s42.77-9.33,61.13-22.25c20.98-14.76,47.09-33.13,96.31-33.13,45.36,0,68.94,18.96,87.89,34.2,2.06,1.66,4.03,3.24,5.95,4.74v-37.88c-22.68-10.52-37.7-28.04-49.81-42.16Z" fill="none" stroke-width="0"/><rect y="438.63" width="494.46" height="50.34" fill="url(#linear-gradient)" stroke-width="0"/><path d="m331.43,349.66c-23.75,7.35-44.26,13.7-88.25,13.7s-63.69-6.34-87.15-13.67c-24.77-7.75-52.85-16.53-105.97-16.53-22.22,0-37.98,4.75-50.07,10.31v59.02c5.61-2.71,10.42-5.55,14.73-8.1,11.47-6.79,18.39-10.88,35.34-10.88,43.44,0,63.69,6.34,87.15,13.67,24.77,7.75,52.85,16.53,105.97,16.53s81.9-8.77,106.89-16.51c23.75-7.35,44.26-13.7,88.25-13.7,16.3,0,23,4.05,34.11,10.75,6.05,3.65,13.1,7.91,22.03,11.5v-58.85c-12.71-6.91-29.83-13.75-56.14-13.75-53.58,0-81.9,8.77-106.89,16.51Z" fill="url(#linear-gradient-2)" stroke-width="0"/><path d="m412.28,236.06c-48.18,0-73.51,9.81-95.86,18.46-19.78,7.66-36.86,14.27-73.23,14.27s-52.65-6.59-72.14-14.22c-22.15-8.67-47.24-18.5-95-18.5-37.98,0-59.21,10.06-76.05,18.64v56.38c10.3-3.57,18.62-7.82,26.14-11.67,14.78-7.55,25.46-13.01,49.91-13.01,35.82,0,52.65,6.59,72.14,14.22,22.15,8.67,47.24,18.5,95,18.5s73.51-9.81,95.86-18.46c19.78-7.66,36.86-14.27,73.23-14.27,23.86,0,34.31,5.42,48.76,12.93,9.19,4.77,19.61,10.17,33.42,14.12v-55.1c-1.58-.8-3.18-1.63-4.84-2.49-17-8.82-38.15-19.8-77.35-19.8Z" fill="url(#linear-gradient-3)" stroke-width="0"/><path d="m400.62,123.07c-49.22,0-75.33,18.37-96.31,33.13-18.36,12.92-31.63,22.25-61.13,22.25s-42.79-9.33-61.16-22.25c-20.98-14.76-47.1-33.12-96.33-33.12-43.63,0-67.11,17.55-85.7,32.45v62.72c14.83-6.75,25.97-15.71,35.85-23.65,15.86-12.75,26.33-21.18,49.84-21.18,29.51,0,42.79,9.33,61.16,22.25,20.98,14.76,47.1,33.12,96.33,33.12s75.33-18.37,96.31-33.13c18.36-12.92,31.63-22.25,61.13-22.25,23.53,0,34.01,8.43,49.87,21.18,11.6,9.33,24.96,20.05,43.97,26.96v-59.55c-1.92-1.5-3.89-3.08-5.95-4.74-18.95-15.23-42.54-34.2-87.89-34.2Z" fill="url(#linear-gradient-4)" stroke-width="0"/><path d="m41.74,81.96c17.81-20.77,28.07-31.62,48.69-31.62,17.25,0,28.47,1.52,58.57,32.74,21.62,22.42,48.52,50.33,101.6,50.33,50.21,0,76.14-29.62,95.07-51.26,18.3-20.9,28.85-31.81,50.34-31.81s30.84,10.84,48.65,31.61c12.11,14.13,27.13,31.64,49.81,42.16V56.91c-1.52-1.74-3.08-3.54-4.72-5.46C471.13,29.74,445.64,0,396.01,0s-76.14,29.62-95.07,51.26c-18.3,20.9-28.84,31.81-50.34,31.81-17.25,0-28.47-1.52-58.57-32.74C170.42,27.91,143.51,0,90.43,0,43.68,0,18.34,26.37,0,47.58v72.33c18.28-10.6,31.13-25.57,41.74-37.95Z" fill="url(#linear-gradient-5)" stroke-width="0"/></svg>