<?xml version="1.0" encoding="UTF-8"?><svg id="Layer_1" xmlns="http://www.w3.org/2000/svg" viewBox="0 0 439.74 423.83"><path d="m439.58,288.35c0,7.25-.28,14.52.08,21.74.3,5.99-1.27,8.31-7.14,8.27-67.87-.5-98.94-2.93-157.66-41.4-23.34-15.29-55.84-46.56-79.45-61.33-50.28-31.44-128.41-42.48-185.63-43.15q-9.56-.11-9.55-10.65c.01-13.5.33-27.01-.1-40.49-.21-6.72,1.87-8.52,7.75-8.43,67.04,1.03,99.91,3.57,158.19,41.36,27.68,17.95,54.3,41.3,82.63,57.91,40.6,23.81,115.85,43.42,161.6,45.88,7.68.41,15.36.97,23.04.93,4.6-.02,6.56,1.49,6.32,6.87-.33,7.48-.08,14.99-.09,22.49Z" style="fill:#666867; stroke-width:0px;"/><path d="m95.85,11.27c40.46,5.13,90.17,26.22,166.05,80.5,24.29,17.38,68.71,32.2,96.68,41.78,23.98,8.21,48.6,11.48,73.56,11.74,6.5.07,7.46,2.31,7.5,10.02.08,13.66.06,27.01.03,40.34-.02,7.14-1.51,8.92-7.34,8.91-52.9-.08-101.52-15.86-146.71-46.3-29.11-19.61-60.23-53.96-90.72-70.73-50.75-27.93-103.83-24.1-160.12-27.2-9.48-.52-18.98-.81-28.47-.88-4.12-.03-6.23.96-6.16-4.22l.13-7.43C.21,20.79,61.26,12.51,70.37,11.49c7.73-.87,15.53-.97,23.28-.4.72.05,1.44.11,2.19.18Z" style="fill:#666867; stroke-width:0px;"/><path d="m439.61,378.09s.01.48,0,1.99c0,13.14-23.61,25.81-53.16,32.87-32.34,7.73-72.8,1.56-102-15.64-10.89-6.42-25.81-15.62-48.9-29.73-29.54-21.43-66.29-37.9-92.79-55.07-37.55-24.32-89.62-26.55-132.54-27.19-9.95-.15-9.95-.28-9.95-11.04,0-13.24.28-26.49-.14-39.72-.21-6.58,1.6-8.46,7.63-8.47,57.6-.1,81.83,7.07,130.84,40.58,28.58,19.54,53.68,40.01,83.91,56.16,50.82,27.15,138.19,45.96,194.31,48.1,5.86.22,11.72.46,17.57.45,2.94,0,5.29,2.63,5.24,5.88v.71s-.02.1,0,.1Z" style="fill:#666867; stroke-width:0px;"/><path d="m235.14.62c3.55-.28,5.47-.57,7.38-.57,28.27-.03,56.54-.14,84.81.11,3.64.03,15.31-.03,15.31-.03l13.29-.04c44.04-.09,83.81,4.01,83.81,56.66v14.66s-.38-1.54-.04,12.7c.14,5.97-1.65,7.65-6.97,7.66-40.16.12-77.09-11.34-111.36-34.81-27.27-18.67-55.4-35.82-83.14-53.66-.56-.36-1.03-.88-3.09-2.69Z" style="fill:#666867; stroke-width:0px;"/><path d="m203.03,422.7c-.16.44-.54.74-.97.77-1.72.13-3.44.3-5.15.3-28.24.02-56.48.15-84.72-.14,0,0-31.94.2-42.34.2-33.68,0-68.78-22.79-69.8-57.24l-.05-13.5.08-7.47s.55,9.73.03-3.73c-.29-7.53,1.69-9.7,8.66-9.71,39.74-.08,76.01,11.96,109.83,34.95,27.3,18.56,55.38,35.69,83.11,53.46.3.19.6.4.89.6.45.32.64.95.44,1.5h0Z" style="fill:#666867; stroke-width:0px;"/></svg>