<?xml version="1.0" encoding="utf-8"?>
<!-- Generator: Adobe Illustrator 28.0.0, SVG Export Plug-In . SVG Version: 6.00 Build 0)  -->
<svg version="1.1" id="Layer_1" xmlns="http://www.w3.org/2000/svg" xmlns:xlink="http://www.w3.org/1999/xlink" x="0px" y="0px"
	 viewBox="0 0 800 800" style="enable-background:new 0 0 800 800;" xml:space="preserve">
<style type="text/css">
	.st0{fill:none;}
	.st1{fill:#22BF22;}
</style>
<g>
	<path class="st0" d="M0,0h800v800H0V0z"/>
	<path class="st1" d="M400,66.7c184.1,0,333.3,149.2,333.3,333.3c0,146.7-94.7,271.2-226.3,315.8l-7.5,2.5l-96.8-251.7
		c35.6-1.6,64-31.4,64-66.6c0-36.8-29.8-66.7-66.7-66.7s-66.7,29.8-66.7,66.7c0,35.9,28.4,65.2,63.9,66.6l-96.8,251.6l-7.5-2.5
		C161.3,671.2,66.7,546.7,66.7,400C66.7,215.9,215.9,66.7,400,66.7z M400,133.3c-147.3,0-266.7,119.4-266.7,266.7
		c0,97.3,52.1,182.5,130,229.1l49.3-128.3c-28.2-24.4-46-60.5-46-100.8c0-73.7,59.7-133.3,133.3-133.3S533.3,326.3,533.3,400
		c0,40.2-17.8,76.3-46,100.8c18.8,49.1,35.3,91.9,49.3,128.3c77.9-46.6,130-131.8,130-229.1C666.7,252.7,547.3,133.3,400,133.3z"/>
</g>
</svg>
