<?xml version="1.0" encoding="UTF-8"?>
<svg id="Layer_1" data-name="Layer 1" xmlns="http://www.w3.org/2000/svg" width="800" height="800" viewBox="0 0 800 800">
  <path d="M400,1.509997c220.919952,0,400,179.080009,400,400,0,175.999985-113.639984,325.439987-271.559982,378.919983l-9.039993,2.959976-116.160011-302.000008c42.759972-1.879959,76.759987-37.719955,76.759987-79.879951,0-44.199982-35.800018-80-80-80s-80,35.800018-80,80c0,43.079987,34.039993,78.199997,76.679993,79.920006l-116.119995,301.96003-9.000015-2.959976C113.600006,726.949984,0,577.509982,0,401.509997,0,180.590006,179.080009,1.509997,400,1.509997ZM400,81.509997c-176.720009,0-320,143.279991-320,320,0,116.800003,62.560005,219.000015,156.040001,274.87999l59.20002-153.959999c-33.880005-29.319992-55.240021-72.639999-55.240021-120.919991,0-88.400002,71.599998-160,160-160s160,71.599998,160,160c0,48.279991-21.399994,91.599998-55.200005,120.919991,22.599983,58.959999,42.360001,110.279961,59.159966,153.999977,93.440018-55.919952,156.040039-158.119965,156.040039-274.919968,0-176.720009-143.280029-320-320-320Z" fill="#22bf22"/>
</svg>