<?xml version="1.0" encoding="utf-8"?>
<!-- Generator: Adobe Illustrator 28.0.0, SVG Export Plug-In . SVG Version: 6.00 Build 0)  -->
<svg version="1.1" id="Layer_1" xmlns="http://www.w3.org/2000/svg" xmlns:xlink="http://www.w3.org/1999/xlink" x="0px" y="0px"
	 viewBox="0 0 800 800" style="enable-background:new 0 0 800 800;" xml:space="preserve">
<style type="text/css">
	.st0{fill:none;}
	.st1{fill:#AAAAAA;}
</style>
<g>
	<path class="st0" d="M0,0h800v800H0V0z"/>
	<path class="st1" d="M400,66.7c184.1,0,333.3,149.2,333.3,333.3c0,137.7-83.5,255.9-202.6,306.7l-83.9-218.3
		c31.6-16.8,53.2-50,53.2-88.4c0-55.2-44.8-100-100-100s-100,44.8-100,100c0,38.3,21.6,71.6,53.2,88.4l-83.9,218.3
		C150.1,655.8,66.7,537.7,66.7,400C66.7,215.9,215.9,66.7,400,66.7z"/>
</g>
</svg>
