<?xml version="1.0" encoding="UTF-8"?><svg id="Layer_1" xmlns="http://www.w3.org/2000/svg" viewBox="0 0 448.14 430.59"><path d="m389.99,347.25c-.83-.31-1.67-.59-2.52-.86-2.11-.7-4.29-1.42-6.43-2.57-5.3-2.84-10.62-5.83-15.76-8.72-3.4-1.91-6.79-3.82-10.2-5.7-5.38-2.96-10.76-5.9-16.15-8.83-6.32-3.44-12.64-6.89-18.94-10.37-6.92-3.83-13.82-7.7-20.71-11.57-4.93-2.77-9.86-5.54-14.81-8.29-11.76-6.55-23.06-13.25-32.11-23.19-8.9-9.77-17.1-20.36-25.03-30.59l-4.04-5.21c-7.37-9.46-16.93-17.45-29.23-24.42-4.12-2.33-8.39-4.3-12.92-6.39-3.1-1.43-6.3-2.91-9.43-4.51-3.5-1.79-6.92-3.75-10.22-5.65-2.11-1.22-4.23-2.43-6.37-3.6-10.55-5.78-21.11-11.54-31.68-17.3l-18.36-10.02c-8.11-4.43-16.23-8.86-24.32-13.32l-.71-.39c-12.73-7.02-25.46-14.04-38.16-21.11-6.23-3.47-10.26-9.11-11.36-15.87-1.31-8.07,1.82-15.56,8.58-20.57,3.98-2.94,8.25-4.43,12.69-4.43,3.6,0,7.21.99,10.74,2.96l3.71,2.07c5.84,3.25,11.68,6.5,17.53,9.72,10.12,5.56,20.24,11.12,30.36,16.67,8.35,4.58,16.69,9.16,25.04,13.75,4.88,2.68,9.76,5.39,14.63,8.1,10.39,5.78,21.13,11.75,31.81,17.36,14.77,7.77,25.73,18.25,33.51,32.06,6.18,10.97,14.93,20.88,26.76,30.28,14.92,11.87,31.93,21.26,48.39,30.34,3.79,2.09,7.58,4.18,11.34,6.3,11.71,6.59,23.73,13.14,35.35,19.47,5.65,3.08,11.29,6.16,16.93,9.25,4.34,2.39,8.68,4.78,13.02,7.18,9.27,5.12,18.85,10.42,28.33,15.49,8.21,4.38,12.79,10.07,13.99,17.39.94,5.75-.7,11.8-4.5,16.58-4.08,5.14-10.23,8.34-16.86,8.78l-.97.06-.91-.34Z" style="fill:#00a04d; stroke-width:0px;"/><path d="m215.16,188.69c-7.56-13.41-18.14-23.15-31.66-30.26-15.65-8.23-31.01-16.99-46.51-25.5-18.46-10.15-36.94-20.27-55.4-30.42-7.1-3.91-14.18-7.86-21.27-11.8-6.42-3.57-12.76-3.08-18.5,1.16-5.29,3.91-7.86,9.61-6.79,16.17.89,5.49,4.12,9.85,9.08,12.62,12.92,7.2,25.88,14.35,38.84,21.49,8.09,4.46,16.2,8.89,24.31,13.31,16.68,9.11,33.38,18.19,50.04,27.32,5.51,3.02,10.88,6.34,16.47,9.19,7.44,3.8,15.27,6.88,22.53,10.99,11.71,6.63,22.2,14.81,30.58,25.58,9.37,12.04,18.59,24.26,28.84,35.53,8.62,9.46,19.77,16.05,30.96,22.28,11.85,6.6,23.64,13.29,35.51,19.85,11.67,6.45,23.41,12.77,35.08,19.2,8.66,4.77,17.21,9.72,25.92,14.39,2.61,1.4,5.58,2.13,8.38,3.17,10.94-.73,18.74-10.4,17.16-20.07-1.09-6.64-5.7-10.93-11.63-14.1-13.88-7.41-27.6-15.12-41.39-22.69-17.44-9.58-34.98-18.98-52.32-28.75" style="fill:#00a04d; stroke-width:0px;"/><path d="m347.97,394.13c-.87-.31-1.75-.59-2.63-.88-2.19-.7-4.45-1.43-6.67-2.59-5.23-2.72-10.44-5.64-15.48-8.45-1.85-1.03-3.69-2.07-5.54-3.09l-11.78-6.53c-13.32-7.38-26.63-14.76-39.93-22.16-3.09-1.72-6.17-3.49-9.24-5.26-5.31-3.06-10.81-6.22-16.3-9.06-10.93-5.65-20.35-11.92-28.81-19.17-10.48-8.98-18.66-19.89-26.56-30.44-1.77-2.37-3.55-4.74-5.35-7.08-8.02-10.46-16.62-18.29-26.27-23.94-4.6-2.69-9.58-5.09-14.4-7.41-3.52-1.69-7.16-3.45-10.7-5.33-7.53-4.01-15.09-8.21-22.4-12.28-3.68-2.05-7.36-4.1-11.06-6.13-13.14-7.23-26.28-14.45-39.44-21.65-2.8-1.53-5.59-3.07-8.39-4.6-8.58-4.71-17.45-9.58-26.23-14.22-12.36-6.53-17.22-18.8-11.8-29.84,3.56-7.26,11.51-12.32,19.34-12.32,2.6,0,5.08.55,7.36,1.63,5.4,2.56,10.68,5.43,15.8,8.22l.34.18c11.95,6.51,23.89,13.05,35.82,19.58l14.13,7.74c3.65,2,7.29,4.01,10.94,6.02,8.12,4.48,16.52,9.11,24.84,13.52,15.11,8.02,25.41,16.92,32.4,28.03l.54.86c3.87,6.15,7.86,12.5,12.43,18.03,13.07,15.78,30.21,26.72,46.79,36.2,13.95,7.98,28.33,15.81,42.24,23.38l5.33,2.9c11.76,6.41,23.55,12.76,35.33,19.12,7.57,4.08,15.13,8.16,22.69,12.25,2.13,1.15,4.27,2.3,6.41,3.44,6.32,3.38,12.85,6.87,19.14,10.63,8.73,5.23,12.45,13.76,10.22,23.4-2.33,10.07-10.47,16.8-21.25,17.55l-.96.07-.9-.33Z" style="fill:#00a04d; stroke-width:0px;"/><path d="m349.51,389.84c8.34-.58,15.17-5.62,17.12-14.03,1.57-6.81-.24-13.73-8.12-18.46-8.28-4.96-16.88-9.38-25.37-13.97-19.34-10.47-38.73-20.86-58.04-31.38-15.94-8.68-31.9-17.32-47.65-26.32-17.74-10.14-34.84-21.31-48.04-37.25-4.98-6.01-9.15-12.74-13.32-19.37-7.54-11.99-18.42-19.93-30.67-26.43-12.02-6.37-23.89-13.03-35.83-19.56-16.64-9.11-33.27-18.24-49.94-27.32-5.25-2.86-10.51-5.73-15.91-8.29-7.67-3.63-17.19,1.52-20.65,8.58-4.55,9.27.36,18.79,9.83,23.8,11.64,6.14,23.14,12.54,34.68,18.86,13.16,7.2,26.3,14.42,39.45,21.65,11.13,6.13,22.19,12.4,33.4,18.37,8.34,4.44,17.12,8.07,25.26,12.84,10.89,6.38,19.89,15.07,27.59,25.11,9.81,12.79,18.86,26.21,31.25,36.83,8.57,7.34,17.92,13.4,27.94,18.58,8.7,4.5,17.09,9.61,25.66,14.38,17.22,9.59,34.47,19.13,51.7,28.68,6.96,3.86,13.86,7.82,20.91,11.49,2.73,1.42,5.82,2.16,8.74,3.22Z" style="fill:#00a04d; stroke-width:0px;"/><path d="m418.46,287.67c-2.5,0-4.85-.52-6.98-1.54-4-1.91-8.18-4.08-13.57-7.03-9.59-5.25-20.04-11.03-31.93-17.66-4.07-2.27-8.13-4.57-12.19-6.87-6.51-3.68-13.24-7.49-19.9-11.12-12.01-6.54-24.47-14.1-34.21-25.07-6.94-7.82-13.45-16.17-19.73-24.24-3.02-3.88-6.15-7.89-9.27-11.78-6.51-8.1-14.83-15.08-24.73-20.76-3.97-2.28-8.08-4.21-12.44-6.25-3.48-1.63-7.07-3.32-10.56-5.19-8.54-4.57-17.13-9.34-25.44-13.96-5.36-2.98-10.72-5.95-16.1-8.89-8.68-4.75-17.38-9.47-26.08-14.2-7.65-4.15-15.29-8.3-22.93-12.47-7-3.82-13.99-7.67-20.97-11.52-7.2-3.96-14.4-7.93-21.61-11.86-10.7-5.84-15.64-17.5-11.76-27.72,3.1-8.15,11.73-14.07,20.53-14.07,3.61,0,7.09.93,10.35,2.76,10.99,6.19,22.44,12.53,35.02,19.41,7.96,4.35,15.94,8.67,23.92,13,8.67,4.7,17.34,9.39,25.99,14.13,15.28,8.36,30.85,17.03,44.26,24.5,10.41,5.8,17.67,12,22.84,19.51,1.68,2.45,3.34,4.92,4.99,7.4,4.11,6.15,8.37,12.52,13.02,18.27,11.22,13.88,25.94,23.47,40.18,31.77,12.43,7.25,25.31,14.28,37.76,21.09,5.43,2.97,10.85,5.93,16.27,8.93,17.75,9.82,35.4,19.58,53.06,29.33,5.6,3.09,13.13,8.62,13.92,20.88l.05.79-.22.76c-.12.41-.24.88-.37,1.39-.38,1.46-.84,3.29-1.55,5.12-2.9,7.51-11.32,13.18-19.59,13.18h0Z" style="fill:#00a04d; stroke-width:0px;"/><path d="m435.59,266.72c-.56-8.7-5.1-13.6-11.57-17.18-17.69-9.77-35.37-19.55-53.06-29.33-18.06-9.99-36.29-19.67-54.11-30.06-15.33-8.93-30.13-18.87-41.43-32.84-6.63-8.2-12.23-17.24-18.22-25.94-5.48-7.97-13.01-13.5-21.31-18.12-14.72-8.2-29.45-16.39-44.23-24.48-16.61-9.09-33.3-18.04-49.91-27.12-11.73-6.41-23.42-12.88-35.06-19.44-10.15-5.72-21.25.71-24.38,8.95-3.14,8.28,1.06,17.4,9.68,22.1,14.21,7.76,28.37,15.62,42.58,23.38,16.32,8.92,32.7,17.74,49.01,26.67,13.85,7.58,27.59,15.37,41.51,22.83,7.58,4.06,15.66,7.23,23.12,11.51,9.92,5.69,18.79,12.87,26.01,21.86,9.61,11.96,18.69,24.39,28.86,35.84,9.14,10.29,20.9,17.52,32.98,24.1,10.78,5.87,21.41,12.02,32.14,18,10.61,5.92,21.24,11.81,31.9,17.64,4.39,2.41,8.83,4.75,13.35,6.92,7.22,3.46,17.49-1.77,20.35-9.17.86-2.22,1.34-4.57,1.79-6.12Z" style="fill:#00a04d; stroke-width:0px;"/><path d="m428.91,220.61c-3.93,0-7.97-1.06-11.68-3.06-10.72-5.78-22.14-11.98-33.51-18.55-6.57-3.8-15.18-8.92-23.52-14.77-14.85-10.43-25.57-24.67-34.45-37.21-10.46-14.76-22-25.43-35.28-32.61-3.88-2.1-7.97-4.07-11.93-5.98-3.84-1.86-7.82-3.77-11.69-5.84-7-3.74-14.03-7.67-20.82-11.46-4.5-2.51-9-5.03-13.53-7.51-7.44-4.08-14.9-8.13-22.36-12.17-6.45-3.5-12.91-7-19.35-10.53l-6.13-3.35c-10.48-5.72-21.32-11.64-31.91-17.64-3.87-2.19-12.85-7.28-11.63-18.34-.39-8.14,3.35-14.65,10.58-18.35,3.42-1.75,7.09-2.63,10.93-2.63,4.22,0,8.64,1.07,13.15,3.19,4.75,2.23,9.35,4.82,13.79,7.32,1.71.97,3.43,1.93,5.15,2.88,8.85,4.85,49.66,27.27,49.66,27.27,3.36,1.84,6.71,3.69,10.06,5.55,8.27,4.57,16.82,9.3,25.3,13.76,15.39,8.09,25.93,17.69,33.16,30.23,3.18,5.52,7.14,11.08,12.09,16.99,12.47,14.9,28.62,25.26,41.29,32.63,11.11,6.46,22.63,12.72,33.76,18.77,6.87,3.73,13.97,7.59,20.93,11.47,1.3.73,2.63,1.42,3.96,2.11,5.74,3,11.68,6.1,16.21,11.84,4.52,5.72,8.79,12.79,6.23,21.83-2.48,8.75-9.55,14.18-18.46,14.18h0Z" style="fill:#00a04d; stroke-width:0px;"/><path d="m145.7,21.73c-.97,7.24,3.83,11.13,9.3,14.23,12.58,7.13,25.29,14.02,37.97,20.95,13.89,7.59,27.83,15.09,41.72,22.7,11.46,6.28,22.79,12.79,34.31,18.94,7.77,4.15,15.89,7.65,23.63,11.83,15.13,8.18,26.97,20.06,36.83,33.98,9.56,13.49,19.67,26.51,33.35,36.12,7.46,5.24,15.29,9.99,23.19,14.56,11.01,6.37,22.19,12.45,33.39,18.48,9.16,4.94,20.42,2.84,23.59-8.35,1.97-6.95-1.31-12.56-5.42-17.76-4.92-6.23-12.18-9.09-18.81-12.79-18.22-10.16-36.73-19.79-54.76-30.27-15.72-9.14-30.68-19.53-42.5-33.64-4.62-5.52-8.95-11.41-12.54-17.63-7.46-12.92-18.39-21.67-31.33-28.47-11.91-6.26-23.63-12.88-35.43-19.35-16.56-9.08-33.1-18.19-49.66-27.27-6.2-3.4-12.29-7.06-18.69-10.07-6.46-3.04-13.45-4.01-20.06-.62-5.56,2.85-8.52,7.72-8.08,14.43Z" style="fill:#00a04d; stroke-width:0px;"/><path d="m285.66,429.04c-.29,0-.57,0-.86-.02l-.51-.02-.49-.14c-1.44-.39-2.91-.73-4.47-1.09-3.65-.83-7.42-1.7-11.01-3.38-6.2-2.91-12.2-6.31-18.01-9.6-2.01-1.14-4.03-2.28-6.05-3.4-5.66-3.14-11.3-6.3-16.94-9.47-11.29-6.34-22.96-12.9-34.56-19.06-22.04-11.7-39.21-26.93-52.51-46.59-10.97-16.21-21.96-27.21-34.61-34.62-4.38-2.57-9.12-4.86-13.7-7.09-3.09-1.5-6.28-3.04-9.39-4.69-5.23-2.76-10.46-5.68-15.52-8.5-2.19-1.22-4.38-2.45-6.58-3.66l-13.76-7.61c-11.68-6.46-23.35-12.92-35.04-19.34-6.28-3.45-10.2-8.82-11.35-15.53-1.36-7.99,1.73-15.4,8.5-20.33,4.05-2.95,8.36-4.45,12.82-4.45,3.48,0,6.93.93,10.26,2.76,5.27,2.89,10.54,5.77,15.82,8.65,4.37,2.39,8.75,4.77,13.12,7.17,3.53,1.93,7.04,3.89,10.55,5.85,7.16,3.99,14.56,8.12,21.93,11.92,13.87,7.16,24.27,17.03,31.78,30.19,5.63,9.86,12.65,18.56,20.87,25.84,10.59,9.4,23.34,18.16,40.13,27.59,7.71,4.33,15.49,8.81,23.02,13.14,5.71,3.29,11.43,6.57,17.16,9.83,6.09,3.46,12.2,6.88,18.31,10.31,7.1,3.98,14.2,7.96,21.26,11.99,10.18,5.8,20.73,11.94,31.34,18.25,4.85,2.88,7.73,7.65,8.33,13.78.51,5.2-1.36,10.56-5.12,14.7-3.81,4.2-9.19,6.61-14.74,6.61h0Z" style="fill:#00a04d; stroke-width:0px;"/><path d="m285,424.46c9.59.41,16.77-8.18,15.98-16.3-.43-4.37-2.31-8.04-6.12-10.3-10.37-6.16-20.79-12.24-31.27-18.21-13.15-7.5-26.4-14.82-39.57-22.29-13.41-7.61-26.72-15.4-40.16-22.95-14.51-8.15-28.45-17.09-40.92-28.16-8.77-7.78-16.02-16.87-21.8-26.99-7.16-12.54-17.13-21.8-29.91-28.39-11-5.68-21.72-11.88-32.58-17.83-9.64-5.28-19.3-10.52-28.94-15.82-6.39-3.51-12.7-2.63-18.2,1.38-5.13,3.74-7.79,9.41-6.69,15.87.92,5.37,4.09,9.57,9.05,12.3,16.29,8.95,32.54,17.97,48.81,26.96,7.33,4.05,14.61,8.22,22.02,12.12,7.7,4.06,15.77,7.47,23.27,11.87,15.08,8.84,26.4,21.7,36.08,36,13.13,19.41,30.21,34.15,50.87,45.11,17.36,9.21,34.38,19.04,51.57,28.57,7.89,4.37,15.64,9.04,23.79,12.87,4.56,2.14,9.8,2.85,14.74,4.2Z" style="fill:#00a04d; stroke-width:0px;"/><path d="m161.21,430.59c-5.63,0-5.5-.56-6.97-1.01-3.5-1.06-7.12-2.15-10.58-3.88-6.42-3.21-12.75-6.75-18.88-10.18-2.83-1.58-5.66-3.16-8.51-4.72-12.43-6.79-22.13-16.27-28.84-28.16-7.66-13.58-17.91-25-30.46-33.93-4.78-3.4-9.77-6.74-14.59-9.98-4.06-2.72-8.25-5.53-12.33-8.39-7.09-4.95-11.16-10.95-12.11-17.83-.68-4.93.61-9.43,3.74-13.02,3.55-4.07,9.21-6.51,15.15-6.51,2.13,0,4.2.31,6.15.94,9.53,3.04,17.97,8.75,24.41,16.5,4.58,5.53,8.81,11.4,12.89,17.08,2.09,2.91,4.26,5.92,6.42,8.81,8.55,11.44,17.84,19.78,28.41,25.51,2.69,1.46,5.53,2.83,8.28,4.17,2.81,1.36,5.71,2.77,8.54,4.3,12.22,6.61,24.86,13.56,38.64,21.26,6.19,3.46,10,8.62,11.01,14.92.94,5.87-.83,11.95-4.86,16.68-3.49,4.09-8.16,6.64-13.05,7.16" style="fill:#00a04d; stroke-width:0px;"/><path d="m160.41,425.77c9.27,1.03,18.31-8.43,16.68-18.57-.85-5.28-4.16-9.11-8.73-11.67-12.81-7.16-25.67-14.25-38.58-21.22-5.52-2.98-11.31-5.47-16.83-8.47-12.07-6.54-21.72-15.86-29.89-26.78-6.41-8.56-12.36-17.49-19.18-25.71-5.85-7.06-13.47-12.26-22.28-15.07-8.71-2.78-20.66,2.64-19.14,13.62.89,6.42,5.05,11.11,10.21,14.71,8.91,6.23,18.09,12.09,26.95,18.39,13.22,9.4,23.84,21.29,31.79,35.41,6.48,11.5,15.57,20.12,27.06,26.4,9.07,4.96,18,10.2,27.24,14.82,4.51,2.26,9.59,3.39,14.41,5.03.1-.29.2-.58.3-.88Z" style="fill:#00a04d; stroke-width:0px;"/><path d="m408.45,136.15c-7.9,0-13.95-3.94-19.28-7.42l-.42-.28c-10.32-6.73-16.94-16.37-23.35-25.69-1.3-1.89-2.6-3.78-3.92-5.64-6.3-8.83-14.18-18.72-24.87-25.03-7.77-4.58-15.95-8.89-23.86-13.05-4.32-2.27-8.8-4.63-13.17-7.01-9.41-5.12-18.6-10.16-27.68-15.45-8.27-4.82-10.92-14.28-6.92-24.69,2.87-7.46,8.91-11.91,16.16-11.91h3.86c8.52.22,10.83,1.16,15.88,3.92,5.83,3.19,11.69,6.34,17.55,9.48l6.21,3.34c9.81,5.28,19.99,11.28,27.19,21.46,2.13,3.01,4.12,6.14,6.04,9.16.92,1.44,1.83,2.88,2.76,4.3,9.57,14.68,22.99,27.19,42.21,39.39,1.3.82,2.61,1.62,3.93,2.42,5.5,3.33,11.19,6.78,15.81,12.15,5.1,5.94,6.54,13.07,4.03,20.1-3.53,9.89-13.86,10.29-17.25,10.42-.31.01-.62.02-.92.02h0Z" style="fill:#00a04d; stroke-width:0px;"/><path d="m284.01,4.86c-6.51-1.31-12.12,1.79-14.78,8.69-2.91,7.58-1.91,15.11,4.96,19.11,9.09,5.3,18.32,10.35,27.56,15.38,12.38,6.74,25.04,12.98,37.17,20.13,10.9,6.43,18.95,16.04,26.27,26.31,7.73,10.84,14.47,22.61,26.04,30.15,5.48,3.57,10.87,7.22,17.96,6.94,5.81-.22,11.1-1.7,13.13-7.39,1.93-5.42.85-10.88-3.2-15.59-5.2-6.05-12.2-9.55-18.72-13.69-17.11-10.85-32.4-23.59-43.59-40.75-2.9-4.44-5.65-8.99-8.71-13.32-6.53-9.22-15.93-14.86-25.63-20.08-7.94-4.27-15.89-8.51-23.79-12.84-4.24-2.32-6.28-2.86-14.67-3.07Z" style="fill:#00a04d; stroke-width:0px;"/></svg>