<svg xmlns="http://www.w3.org/2000/svg" fill="none" viewBox="0 0 24 24" id="Bun--Streamline-Svg-Logos" height="24" width="24">
  <desc>
    Bun Streamline Icon: https://streamlinehq.com
  </desc>
  <path fill="#000000" d="M21.248225 7.72095c-0.0476 -0.050575 -0.098175 -0.10115 -0.14875 -0.148725 -0.05055 -0.0476 -0.09815 -0.10115 -0.148725 -0.14875 -0.050575 -0.0476 -0.09815 -0.101125 -0.148725 -0.148725 -0.050575 -0.0476 -0.098175 -0.10115 -0.14875 -0.14875 -0.05055 -0.047575 -0.09815 -0.101125 -0.148725 -0.148725 -0.050575 -0.0476 -0.098175 -0.101125 -0.148725 -0.148725 -0.050575 -0.0476 -0.098175 -0.10115 -0.14875 -0.14875 1.4755 1.450075 2.320775 3.42275 2.352975 5.491275 0 4.92905 -5.0034 8.938925 -11.15505 8.938925 -3.4447 0 -6.526475 -1.2583 -8.576025 -3.2305l0.14875 0.148725 0.148725 0.14875 0.148725 0.148725 0.14875 0.148725 0.148725 0.14875 0.148725 0.148725 0.14875 0.148725c2.046575 2.055525 5.196775 3.37925 8.72475 3.37925 6.151625 0 11.15505 -4.009875 11.15505 -8.92405 0 -2.100125 -0.9043 -4.0902 -2.5017 -5.654875Z" stroke-width="0.25"></path>
  <path fill="#fbf0df" d="M21.816425 12.171075c0 4.524475 -4.661325 8.192275 -10.411375 8.192275 -5.750075 0 -10.4113975 -3.6678 -10.4113975 -8.192275 0 -2.805125 1.7847975 -5.28305 4.5274725 -6.75255C8.263775 3.94905 9.97125 2.4438475 11.40505 2.4438475c1.4338 0 2.65935 1.2285525 5.883925 2.9746775 2.74265 1.4695 4.52745 3.947425 4.52745 6.75255Z" stroke-width="0.25"></path>
  <path fill="#f6dece" d="M21.816425 12.171025c-0.00145 -0.581225 -0.0815 -1.1596 -0.237975 -1.719375 -0.8121 9.9057 -12.895275 10.38165 -17.645825 7.418875 2.135525 1.655225 4.770825 2.53435 7.4724 2.492775 5.74115 0 10.4114 -3.673725 10.4114 -8.192275Z" stroke-width="0.25"></path>
  <path fill="#fffefc" d="M7.39815 4.874175c1.329675 -0.797225 3.09665 -2.2935 4.83385 -2.296475 -0.26725 -0.0863775 -0.5461 -0.131515 -0.82695 -0.1338525 -0.719875 0 -1.48735 0.3718275 -2.454125 0.9310775 -0.336125 0.196325 -0.684175 0.413475 -1.053025 0.63955 -0.6931 0.42835 -1.48735 0.913225 -2.37975 1.3981C2.68625 6.94455 0.9936525 9.47005 0.9936525 12.171075l0 0.353975C2.7963 6.15625 6.071425 5.671375 7.39815 4.874175Z" stroke-width="0.25"></path>
  <path fill="#ccbea7" d="M10.548475 3.196475c0.008425 1.42135 -0.603075 2.77575 -1.67475 3.70945 -0.0833 0.07435 -0.01785 0.21715 0.08925 0.1755 1.00245 -0.389675 2.35595 -1.55575 1.7848 -3.908725 -0.0238 -0.133875 -0.1993 -0.098175 -0.1993 0.023775Zm0.67525 0c0.736575 1.2018 0.9115 2.665375 0.478925 4.0069 -0.0357 0.104125 0.092225 0.193375 0.1636 0.1071 0.651475 -0.832925 1.219625 -2.486825 -0.4819 -4.27165 -0.08625 -0.07735 -0.220125 0.04165 -0.160625 0.14575v0.0119Zm0.821 -0.05055c1.15325 0.81645 1.896425 2.0923 2.037675 3.498225 -0.00625 0.052 0.029425 0.099775 0.081075 0.1085 0.05165 0.00875 0.101075 -0.0246 0.112275 -0.075775 0.273675 -1.038175 0.119 -2.8081 -2.13285 -3.7273 -0.118975 -0.047575 -0.196325 0.11305 -0.098175 0.18445v0.0119Zm-5.49125 3.09365c1.371225 -0.40965 2.5036 -1.383025 3.1145 -2.6772 0.053525 -0.1071 0.2231 -0.06545 0.196325 0.05355 -0.514625 2.37975 -2.236975 2.8765 -3.30785 2.811075 -0.11305 0.002975 -0.110075 -0.1547 -0.002975 -0.187425Z" stroke-width="0.25"></path>
  <path fill="#000000" d="M11.405075 21.11C5.253425 21.11 0.25 17.100125 0.25 12.171075c0 -2.974675 1.838355 -5.75005 4.91715 -7.4129 0.8924 -0.47595 1.6569 -0.954875 2.3381 -1.3743 0.374825 -0.232025 0.7288 -0.449175 1.0709 -0.651475 1.0441 -0.6187225 1.9365 -1.032205 2.828925 -1.032205 0.8924 0 1.67175 0.3569625 2.64745 0.934055 0.297475 0.16955 0.59495 0.353975 0.913225 0.55625 0.7407 0.458125 1.5766 0.9757 2.677225 1.567675 3.0788 1.66285 4.91715 4.43525 4.91715 7.4129 0 4.92905 -5.003425 8.938925 -11.15505 8.938925Zm0 -18.6661325c-0.719875 0 -1.48735 0.3718325 -2.454125 0.9310825 -0.33615 0.196325 -0.684175 0.413475 -1.05305 0.63955 -0.6931 0.42835 -1.487325 0.913225 -2.379725 1.3981C2.686275 6.944575 0.99367 9.470075 0.99367 12.171075c0 4.51855 4.670255 8.195275 10.411405 8.195275 5.741125 0 10.411375 -3.676725 10.411375 -8.195275 0 -2.701 -1.6926 -5.2265 -4.52745 -6.752525 -1.12445 -0.594925 -2.001975 -1.154175 -2.712925 -1.594425 -0.32425 -0.1993 -0.6217 -0.38375 -0.8924 -0.54735 -0.901325 -0.53545 -1.558725 -0.8329075 -2.2786 -0.8329075Z" stroke-width="0.25"></path>
  <path fill="#b71422" d="M13.50205 14.3426c-0.133625 0.547325 -0.4378 1.037975 -0.8686 1.401075 -0.323425 0.3135 -0.7421 0.5103 -1.189875 0.559225 -0.461225 -0.041175 -0.8946 -0.23845 -1.22855 -0.559225 -0.426375 -0.364825 -0.726275 -0.8553 -0.8567 -1.401075 -0.00875 -0.065675 0.013375 -0.1317 0.059925 -0.178825s0.112275 -0.070075 0.17805 -0.062125h3.67075c0.0653 -0.00695 0.13015 0.016425 0.176 0.063425 0.045825 0.047 0.067575 0.112425 0.059 0.177525Z" stroke-width="0.25"></path>
  <path fill="#ff6164" d="M10.215175 15.767525c0.333275 0.320975 0.765075 0.5201 1.225575 0.5652 0.459425 -0.04575 0.8901 -0.244825 1.222575 -0.5652 0.106375 -0.099125 0.20575 -0.205475 0.297475 -0.3183 -0.370375 -0.420175 -0.897775 -0.6688 -1.4576 -0.68715 -0.6016 0.01425 -1.15775 0.323475 -1.487325 0.826975 0.0684 0.062475 0.1279 0.12195 0.1993 0.178475Z" stroke-width="0.25"></path>
  <path fill="#000000" d="M10.262775 15.532575c0.2988 -0.386225 0.7581 -0.614225 1.2464 -0.618725 0.445475 0.013125 0.869925 0.192475 1.189875 0.502725 0.0684 -0.074375 0.13385 -0.151725 0.196325 -0.22905 -0.37845 -0.360425 -0.87855 -0.56535 -1.401075 -0.574125 -0.565425 0.004875 -1.099025 0.2624 -1.454625 0.702025 0.070325 0.076425 0.1448 0.148925 0.2231 0.21715Z" stroke-width="0.25"></path>
  <path fill="#000000" d="M11.43185 16.481475c-0.4957 -0.043425 -0.962175 -0.2531 -1.323725 -0.59495 -0.460475 -0.38945 -0.784575 -0.915725 -0.925125 -1.5022 -0.020425 -0.10575 0.008 -0.215075 0.077325 -0.297475 0.082625 -0.09975 0.206675 -0.15575 0.33615 -0.1517h3.67075c0.1292 -0.002725 0.252725 0.053025 0.33615 0.1517 0.068675 0.082725 0.096025 0.192175 0.07435 0.297475 -0.14055 0.586475 -0.46465 1.11275 -0.925125 1.5022 -0.360775 0.34125 -0.8261 0.55085 -1.32075 0.59495Zm-1.835375 -2.201275c-0.0476 0 -0.0595 0.020825 -0.062475 0.026775 0.12575 0.508575 0.410175 0.9639 0.8121 1.29995 0.293875 0.289525 0.675975 0.472725 1.08575 0.52055 0.408725 -0.047275 0.790375 -0.228175 1.08575 -0.5146 0.40065 -0.336625 0.684 -0.79185 0.809125 -1.29995 -0.013225 -0.0194 -0.0362 -0.029725 -0.0595 -0.026775l-3.67075 -0.00595Z" stroke-width="0.25"></path>
  <path fill="#febbd0" d="M15.93245 14.52705c0.961075 0 1.7402 -0.45815 1.7402 -1.0233s-0.779125 -1.023275 -1.7402 -1.023275 -1.7402 0.458125 -1.7402 1.023275c0 0.56515 0.779125 1.0233 1.7402 1.0233Z" stroke-width="0.25"></path>
  <path fill="#febbd0" d="M6.928175 14.52705c0.961075 0 1.7402 -0.45815 1.7402 -1.0233s-0.779125 -1.023275 -1.7402 -1.023275 -1.740175 0.458125 -1.740175 1.023275c0 0.56515 0.7791 1.0233 1.740175 1.0233Z" stroke-width="0.25"></path>
  <path fill="#000000" d="M7.74595 13.093225c0.6632 0.0012 1.261775 -0.3974 1.5164 -1.009775 0.254625 -0.612375 0.115125 -1.317825 -0.3534 -1.787225 -0.468525 -0.469375 -1.17375 -0.61015 -1.786575 -0.356625 -0.61285 0.2535 -1.0125 0.85135 -1.0125 1.51455 0 0.904075 0.732 1.637425 1.636075 1.639075Zm7.368275 -0.000025c0.664 0.004825 1.2653 -0.39145 1.52275 -1.003525 0.25745 -0.612075 0.120175 -1.319 -0.34765 -1.790225 -0.4678 -0.471225 -1.173725 -0.61365 -1.78765 -0.360675s-1.0146 0.851375 -1.0146 1.515375c-0.00165 0.901275 0.7259 1.63415 1.62715 1.63905Z" stroke-width="0.25"></path>
  <path fill="#ffffff" d="M7.24035 11.5582c0.249325 0.0012 0.47475 -0.148075 0.571 -0.37805 0.09625 -0.23 0.0443 -0.49535 -0.131575 -0.672075 -0.17585 -0.176725 -0.44095 -0.22995 -0.6714 -0.1348 -0.23045 0.095125 -0.3808 0.319825 -0.3808 0.56915 0 0.338925 0.27385 0.614125 0.612775 0.615775Zm7.3683 0c0.2493 0.0012 0.47475 -0.148075 0.571 -0.37805 0.09625 -0.23 0.0443 -0.49535 -0.131575 -0.672075 -0.175875 -0.176725 -0.44095 -0.22995 -0.6714 -0.1348 -0.230475 0.095125 -0.380825 0.319825 -0.380825 0.56915 -0.000025 0.336625 0.27025 0.610875 0.60685 0.615775h0.00595Z" stroke-width="0.25"></path>
</svg>