<svg xmlns="http://www.w3.org/2000/svg" fill="none" viewBox="0 0 96 96" id="Duckduckgo--Streamline-Svg-Logos" height="24" width="24">
  <desc>
    Duckduckgo Streamline Icon: https://streamlinehq.com
  </desc>
  <path fill="#de5833" d="M48.0009 7.93311c22.1288 0 40.0676 17.93889 40.0676 40.06769 0 22.1284-17.9388 40.0672-40.0676 40.0672-22.1285 0-40.06731-17.9388-40.06731-40.0672 0-22.1288 17.93881-40.06769 40.06731-40.06769Z"></path>
  <path fill="#de5833" d="M48 95c25.9573 0 47-21.0427 47-47S73.9573 1 48 1 1 22.0427 1 48s21.0427 47 47 47Zm0-3.9167C24.2057 91.0833 4.91667 71.7943 4.91667 48S24.2057 4.91667 48 4.91667C71.7943 4.91667 91.0833 24.2057 91.0833 48c0 23.7943-19.289 43.0833-43.0833 43.0833Z"></path>
  <path fill="#d5d7d8" d="M28.4821 20.9476c-.0077-.6738.4816-1.0511 1.1318-1.3155-.2976.0487-.5827.1232-.8393.2382-.6779.3072-1.1846 1.4704-1.1798 2.0211 3.2908-.3327 8.1571-.1026 11.7157.9596.2625-.0369.5251-.0738.7918-.1044-3.5494-1.5759-7.7692-2.1844-11.6202-1.799Z"></path>
  <path fill="#d5d7d8" d="M29.156 16.8983c.0742-.0133.1494-.0225.2239-.035-.71.0881-1.0843.3419-1.6172.4293.5786.0512 2.7712 1.0747 4.149 1.6374.1933-.0733.3673-.1549.5093-.2511-.7143-.1055-2.4894-1.7098-3.265-1.7806Z"></path>
  <path fill="#d5d7d8" d="M32.5774 24.8665c-.1973.0759-.3846.1552-.5469.2404-5.3642 2.8261-7.7338 9.4273-6.3216 17.3373 1.2889 7.1983 6.572 31.7925 8.991 43.3604.7062.2482 1.421.4787 2.1445.6878-2.1541-10.415-8.0339-37.7062-9.4059-45.371-1.3907-7.7976-.0376-13.3927 5.1389-16.2549Z"></path>
  <path fill="#ffffff" d="M54.2843 81.6113c-.0885.059-.1939.1143-.3064.1682-.0834.3231-.2106.5679-.3961.6911-1.1079.735-4.2372 1.1053-5.8894.735-.2844-.063-.4997-.1674-.6679-.3109-2.821 1.5663-6.8778 3.6515-7.7017 3.1817-1.2871-.738-1.4737-10.4928-1.2871-12.8867.1361-1.8071 6.4839 1.1201 9.5719 2.6554.6826-.6376 2.3551-1.0644 3.8355-1.2093-2.2368-5.4439-3.8864-11.6707-2.8752-16.0863-1.3977-.9741-3.2502-3.233-2.8645-5.5907.2973-1.7946 4.9346-5.1898 8.218-5.3948 3.2909-.2077 4.3165-.1608 7.0582-.8173.1371-.0328.288-.069.4458-.1069 1.6877-5.9329-2.3599-16.2546-6.8748-20.7713-1.4719-1.4719-3.7348-2.3983-6.2847-2.8873-.9807-1.3458-2.5625-2.6325-4.8018-3.8241-4.1582-2.2077-9.2971-3.1064-14.0845-2.2936-.0745.0125-.1498.0218-.2239.035.7756.0708 2.5506 1.6751 3.265 1.7806-.142.0963-.3161.1778-.5093.2512-.6705.2552-1.5818.4101-2.2984.7022-.6502.2644-1.1396.6417-1.1318 1.3155 3.851-.3854 8.0708.2231 11.6202 1.799-.2667.0306-.5293.0675-.7919.1044-2.517.354-4.8305 1.006-6.5019 1.8878-.0786.041-.1531.0852-.2302.1277-5.1764 2.8622-6.5296 8.4573-5.1388 16.2549 1.3719 7.6648 7.2901 35.3787 9.4442 45.7936 3.5416 1.0249 6.8531 1.844 10.7248 1.844 3.2867 0 7.2399-.7284 10.2969-1.4752-1.0736-2.0701-2.4547-4.3592-3.3059-6.0007-.1136.1353-.2033.2537-.3143.3278Zm2.166-39.2998c-1.4029 0-2.5473-1.1411-2.5473-2.5521 0-1.4044 1.1444-2.5458 2.5473-2.5458 1.4107 0 2.5506 1.1414 2.5506 2.5458 0 1.411-1.1399 2.5521-2.5506 2.5521Zm1.5346-9.5918s-1.6069-.9179-2.8538-.9024c-2.5624.0335-3.2602 1.1658-3.2602 1.1658s.43-2.6989 3.7068-2.1575c1.7765.2954 2.4072 1.8941 2.4072 1.8941Zm-27.0165 3.3181s-1.154-2.5716 1.9214-3.8318c3.0788-1.2606 4.578.7173 4.578.7173s-2.2357-1.0112-4.4094.3548c-2.1701 1.3646-2.09 2.7597-2.09 2.7597Zm2.6885 5.4812c0-1.6397 1.3259-2.9667 2.9678-2.9667 1.6374 0 2.9651 1.327 2.9651 2.9667 0 1.64-1.3277 2.9655-2.9651 2.9655-1.6419.0007-2.9678-1.3255-2.9678-2.9655Z"></path>
  <path fill="#2d4f8e" d="M39.5896 41.5189c0-1.6397-1.3276-2.9667-2.9651-2.9667-1.6419 0-2.9678 1.327-2.9678 2.9667 0 1.64 1.3259 2.9662 2.9678 2.9655 1.6375 0 2.9651-1.3255 2.9651-2.9655Zm-1.6515-.218c-.4211.0011-.7674-.3452-.7674-.7708 0-.4267.3452-.77.7674-.77.4256 0 .7708.3433.7708.77 0 .4256-.3452.7708-.7708.7708Z"></path>
  <path fill="#ffffff" d="M37.9389 39.7598c-.4223 0-.7675.3433-.7675.77 0 .4256.3463.7719.7675.7708.4256 0 .7708-.3452.7708-.7708 0-.4267-.3452-.77-.7708-.77Z"></path>
  <path fill="#2d4f8e" d="M56.4501 37.2134c-1.4029 0-2.5473 1.1414-2.5473 2.5458 0 1.411 1.1444 2.5521 2.5473 2.5521 1.4107 0 2.5507-1.1411 2.5507-2.5521 0-1.4044-1.14-2.5458-2.5507-2.5458Zm1.1312 2.3581c-.3596 0-.6565-.2925-.6565-.6598 0-.3625.2969-.6601.6565-.6601.375 0 .6627.2976.6627.6601 0 .3673-.2877.6598-.6627.6598Z"></path>
  <path fill="#ffffff" d="M57.5822 38.2515c-.3595 0-.6564.2976-.6564.6601 0 .3673.2969.6598.6564.6598.3751 0 .6628-.2925.6628-.6598 0-.3625-.2877-.6601-.6628-.6601Z"></path>
  <path fill="url(#a)" d="M37.4683 32.9233s-1.4992-1.9778-4.5779-.7173c-3.0754 1.2602-1.9215 3.8319-1.9215 3.8319s-.08-1.3952 2.09-2.7598c2.1737-1.366 4.4094-.3548 4.4094-.3548Z"></path>
  <path fill="url(#b)" d="M55.5784 30.8254c-3.2768-.5414-3.7068 2.1575-3.7068 2.1575s.6978-1.1322 3.2602-1.1658c1.2469-.0154 2.8538.9025 2.8538.9025s-.6307-1.5987-2.4072-1.8942Z"></path>
  <path fill="#fdd209" d="M53.9216 47.5634c-3.2834.2051-7.9208 3.6002-8.218 5.3948-.3858 2.3578 1.4667 4.6167 2.8645 5.5907.0037.0026.0077.0059.0114.0085 1.3974.9721 10.7019 4.111 15.3182 4.024 4.6214-.09 12.2113-2.9202 11.3778-5.188-.8298-2.2685-8.3677 2.0015-16.2298 1.2728-5.8226-.5411-6.8505-3.1496-5.5611-5.0548 1.6216-2.3947 4.5753.4543 9.4472-1.0035 4.8792-1.4538 11.7028-4.0561 14.2346-5.473 5.854-3.2636-2.4496-4.6171-4.4109-3.7117-1.8591.859-8.3301 2.492-11.3299 3.216-.1579.038-.3087.0741-.4459.1069-2.7417.6565-3.7673.6097-7.0581.8173Z"></path>
  <path fill="#65bc46" d="M46.5881 77.315c0-.3396.2733-.6402.707-.8965.0121-.2062.1243-.398.3123-.5739-3.0879-1.5353-9.4357-4.4625-9.5718-2.6553-.1866 2.3938 0 12.1486 1.2871 12.8866.8239.4699 4.8807-1.6153 7.7017-3.1816-.814-.6938-.4363-2.3777-.4363-5.5793Z"></path>
  <path fill="#65bc46" d="M54.5581 81.2671c.0133.0051.0277.0107.041.0158 2.5277.9755 7.5597 2.8118 8.6524 2.4109 1.4734-.5632 1.1046-12.3375-.5491-12.7126-1.3248-.2939-6.3962 3.2794-8.3914 4.735.353 1.4904.78 4.4423.2471 5.5509Z"></path>
  <path fill="#43a244" d="M48.3953 82.3461c-1.6577-.3674-1.1038-2.0259-1.1038-5.8901 0-.0126.0037-.0248.0044-.0373-.4337.2563-.7069.5569-.7069.8966 0 3.2015-.3777 4.8855.4362 5.5792.1682.1434.3836.2478.6679.3109 1.6523.3703 4.7815 0 5.8894-.735.1855-.1232.3128-.3681.3961-.6912-1.2967.6211-4.0656.9121-5.5833.5669Z"></path>
  <path fill="#65bc46" d="M47.6074 75.8449c-.1881.1759-.3003.3677-.3124.5738-.0008.0126-.0044.0247-.0044.0373 0 3.8643-.554 5.5228 1.1038 5.8901 1.5176.3452 4.2865.0542 5.5833-.5668.1124-.0539.2179-.1092.3064-.1682.111-.0741.2007-.1925.2733-.3437.5329-1.1087.1059-4.0605-.2471-5.5509-.0778-.3278-.1516-.586-.2109-.7372-.1524-.3769-1.3255-.4739-2.6565-.3437-1.4804.1449-3.1529.5716-3.8355 1.2093Z"></path>
  <defs>
    <linearGradient id="a" x1="507.303" x2="30.757" y1="456.983" y2="456.983" gradientUnits="userSpaceOnUse">
      <stop stop-color="#394a9f"></stop>
      <stop offset="1" stop-color="#6176b9"></stop>
    </linearGradient>
    <linearGradient id="b" x1="485.993" x2="51.872" y1="253.68" y2="253.68" gradientUnits="userSpaceOnUse">
      <stop stop-color="#394a9f"></stop>
      <stop offset="1" stop-color="#6176b9"></stop>
    </linearGradient>
  </defs>
</svg>